G04 #@! TF.GenerationSoftware,KiCad,Pcbnew,(5.0.2)-1*
G04 #@! TF.CreationDate,2019-08-18T13:50:33-04:00*
G04 #@! TF.ProjectId,Dual-Rail-Op-Amp,4475616c-2d52-4616-996c-2d4f702d416d,rev?*
G04 #@! TF.SameCoordinates,Original*
G04 #@! TF.FileFunction,Soldermask,Top*
G04 #@! TF.FilePolarity,Negative*
%FSLAX46Y46*%
G04 Gerber Fmt 4.6, Leading zero omitted, Abs format (unit mm)*
G04 Created by KiCad (PCBNEW (5.0.2)-1) date 8/18/2019 1:50:33 PM*
%MOMM*%
%LPD*%
G01*
G04 APERTURE LIST*
%ADD10C,0.150000*%
%ADD11C,0.100000*%
G04 APERTURE END LIST*
D10*
X142989300Y-105346500D02*
X142989300Y-77724000D01*
X142989300Y-105346500D02*
G75*
G02X141693900Y-106641900I-1295400J0D01*
G01*
X141693900Y-76428600D02*
G75*
G02X142989300Y-77724000I0J-1295400D01*
G01*
X86804500Y-77724000D02*
G75*
G02X88099900Y-76428600I1295400J0D01*
G01*
X88099900Y-106641900D02*
G75*
G02X86804500Y-105346500I0J1295400D01*
G01*
X141693900Y-76428600D02*
X88099900Y-76428600D01*
X86804500Y-105346500D02*
X86804500Y-77724000D01*
X141693900Y-106641900D02*
X88099900Y-106641900D01*
D11*
G36*
X135365396Y-102677546D02*
X135538466Y-102749234D01*
X135694230Y-102853312D01*
X135826688Y-102985770D01*
X135930766Y-103141534D01*
X136002454Y-103314604D01*
X136039000Y-103498333D01*
X136039000Y-103685667D01*
X136002454Y-103869396D01*
X135930766Y-104042466D01*
X135826688Y-104198230D01*
X135694230Y-104330688D01*
X135538466Y-104434766D01*
X135365396Y-104506454D01*
X135181667Y-104543000D01*
X134994333Y-104543000D01*
X134810604Y-104506454D01*
X134637534Y-104434766D01*
X134481770Y-104330688D01*
X134349312Y-104198230D01*
X134245234Y-104042466D01*
X134173546Y-103869396D01*
X134137000Y-103685667D01*
X134137000Y-103498333D01*
X134173546Y-103314604D01*
X134245234Y-103141534D01*
X134349312Y-102985770D01*
X134481770Y-102853312D01*
X134637534Y-102749234D01*
X134810604Y-102677546D01*
X134994333Y-102641000D01*
X135181667Y-102641000D01*
X135365396Y-102677546D01*
X135365396Y-102677546D01*
G37*
G36*
X130365396Y-102677546D02*
X130538466Y-102749234D01*
X130694230Y-102853312D01*
X130826688Y-102985770D01*
X130930766Y-103141534D01*
X131002454Y-103314604D01*
X131039000Y-103498333D01*
X131039000Y-103685667D01*
X131002454Y-103869396D01*
X130930766Y-104042466D01*
X130826688Y-104198230D01*
X130694230Y-104330688D01*
X130538466Y-104434766D01*
X130365396Y-104506454D01*
X130181667Y-104543000D01*
X129994333Y-104543000D01*
X129810604Y-104506454D01*
X129637534Y-104434766D01*
X129481770Y-104330688D01*
X129349312Y-104198230D01*
X129245234Y-104042466D01*
X129173546Y-103869396D01*
X129137000Y-103685667D01*
X129137000Y-103498333D01*
X129173546Y-103314604D01*
X129245234Y-103141534D01*
X129349312Y-102985770D01*
X129481770Y-102853312D01*
X129637534Y-102749234D01*
X129810604Y-102677546D01*
X129994333Y-102641000D01*
X130181667Y-102641000D01*
X130365396Y-102677546D01*
X130365396Y-102677546D01*
G37*
G36*
X125662596Y-102677546D02*
X125835666Y-102749234D01*
X125991430Y-102853312D01*
X126123888Y-102985770D01*
X126227966Y-103141534D01*
X126299654Y-103314604D01*
X126336200Y-103498333D01*
X126336200Y-103685667D01*
X126299654Y-103869396D01*
X126227966Y-104042466D01*
X126123888Y-104198230D01*
X125991430Y-104330688D01*
X125835666Y-104434766D01*
X125662596Y-104506454D01*
X125478867Y-104543000D01*
X125291533Y-104543000D01*
X125107804Y-104506454D01*
X124934734Y-104434766D01*
X124778970Y-104330688D01*
X124646512Y-104198230D01*
X124542434Y-104042466D01*
X124470746Y-103869396D01*
X124434200Y-103685667D01*
X124434200Y-103498333D01*
X124470746Y-103314604D01*
X124542434Y-103141534D01*
X124646512Y-102985770D01*
X124778970Y-102853312D01*
X124934734Y-102749234D01*
X125107804Y-102677546D01*
X125291533Y-102641000D01*
X125478867Y-102641000D01*
X125662596Y-102677546D01*
X125662596Y-102677546D01*
G37*
G36*
X120662596Y-102677546D02*
X120835666Y-102749234D01*
X120991430Y-102853312D01*
X121123888Y-102985770D01*
X121227966Y-103141534D01*
X121299654Y-103314604D01*
X121336200Y-103498333D01*
X121336200Y-103685667D01*
X121299654Y-103869396D01*
X121227966Y-104042466D01*
X121123888Y-104198230D01*
X120991430Y-104330688D01*
X120835666Y-104434766D01*
X120662596Y-104506454D01*
X120478867Y-104543000D01*
X120291533Y-104543000D01*
X120107804Y-104506454D01*
X119934734Y-104434766D01*
X119778970Y-104330688D01*
X119646512Y-104198230D01*
X119542434Y-104042466D01*
X119470746Y-103869396D01*
X119434200Y-103685667D01*
X119434200Y-103498333D01*
X119470746Y-103314604D01*
X119542434Y-103141534D01*
X119646512Y-102985770D01*
X119778970Y-102853312D01*
X119934734Y-102749234D01*
X120107804Y-102677546D01*
X120291533Y-102641000D01*
X120478867Y-102641000D01*
X120662596Y-102677546D01*
X120662596Y-102677546D01*
G37*
G36*
X132745947Y-100026337D02*
X132901858Y-100057350D01*
X133097677Y-100138461D01*
X133171596Y-100187852D01*
X133273913Y-100256218D01*
X133423782Y-100406087D01*
X133423784Y-100406090D01*
X133541539Y-100582323D01*
X133622650Y-100778142D01*
X133641984Y-100875343D01*
X133664000Y-100986022D01*
X133664000Y-101197978D01*
X133660002Y-101218077D01*
X133622650Y-101405858D01*
X133541539Y-101601677D01*
X133541538Y-101601678D01*
X133423782Y-101777913D01*
X133273913Y-101927782D01*
X133273910Y-101927784D01*
X133097677Y-102045539D01*
X132901858Y-102126650D01*
X132745947Y-102157662D01*
X132693978Y-102168000D01*
X132482022Y-102168000D01*
X132430053Y-102157662D01*
X132274142Y-102126650D01*
X132078323Y-102045539D01*
X131902090Y-101927784D01*
X131902087Y-101927782D01*
X131752218Y-101777913D01*
X131634462Y-101601678D01*
X131634461Y-101601677D01*
X131553350Y-101405858D01*
X131515998Y-101218077D01*
X131512000Y-101197978D01*
X131512000Y-100986022D01*
X131534016Y-100875343D01*
X131553350Y-100778142D01*
X131634461Y-100582323D01*
X131752216Y-100406090D01*
X131752218Y-100406087D01*
X131902087Y-100256218D01*
X132004404Y-100187852D01*
X132078323Y-100138461D01*
X132274142Y-100057350D01*
X132430053Y-100026338D01*
X132482022Y-100016000D01*
X132693978Y-100016000D01*
X132745947Y-100026337D01*
X132745947Y-100026337D01*
G37*
G36*
X123043147Y-100026337D02*
X123199058Y-100057350D01*
X123394877Y-100138461D01*
X123468796Y-100187852D01*
X123571113Y-100256218D01*
X123720982Y-100406087D01*
X123720984Y-100406090D01*
X123838739Y-100582323D01*
X123919850Y-100778142D01*
X123939184Y-100875343D01*
X123961200Y-100986022D01*
X123961200Y-101197978D01*
X123957202Y-101218077D01*
X123919850Y-101405858D01*
X123838739Y-101601677D01*
X123838738Y-101601678D01*
X123720982Y-101777913D01*
X123571113Y-101927782D01*
X123571110Y-101927784D01*
X123394877Y-102045539D01*
X123199058Y-102126650D01*
X123043147Y-102157662D01*
X122991178Y-102168000D01*
X122779222Y-102168000D01*
X122727253Y-102157662D01*
X122571342Y-102126650D01*
X122375523Y-102045539D01*
X122199290Y-101927784D01*
X122199287Y-101927782D01*
X122049418Y-101777913D01*
X121931662Y-101601678D01*
X121931661Y-101601677D01*
X121850550Y-101405858D01*
X121813198Y-101218077D01*
X121809200Y-101197978D01*
X121809200Y-100986022D01*
X121831216Y-100875343D01*
X121850550Y-100778142D01*
X121931661Y-100582323D01*
X122049416Y-100406090D01*
X122049418Y-100406087D01*
X122199287Y-100256218D01*
X122301604Y-100187852D01*
X122375523Y-100138461D01*
X122571342Y-100057350D01*
X122727253Y-100026338D01*
X122779222Y-100016000D01*
X122991178Y-100016000D01*
X123043147Y-100026337D01*
X123043147Y-100026337D01*
G37*
G36*
X117276277Y-100132865D02*
X117313964Y-100144298D01*
X117348703Y-100162866D01*
X117379148Y-100187852D01*
X117404134Y-100218297D01*
X117422702Y-100253036D01*
X117434135Y-100290723D01*
X117438600Y-100336061D01*
X117438600Y-101172739D01*
X117434135Y-101218077D01*
X117422702Y-101255764D01*
X117404134Y-101290503D01*
X117379148Y-101320948D01*
X117348703Y-101345934D01*
X117313964Y-101364502D01*
X117276277Y-101375935D01*
X117230939Y-101380400D01*
X116144261Y-101380400D01*
X116098923Y-101375935D01*
X116061236Y-101364502D01*
X116026497Y-101345934D01*
X115996052Y-101320948D01*
X115971066Y-101290503D01*
X115952498Y-101255764D01*
X115941065Y-101218077D01*
X115936600Y-101172739D01*
X115936600Y-100336061D01*
X115941065Y-100290723D01*
X115952498Y-100253036D01*
X115971066Y-100218297D01*
X115996052Y-100187852D01*
X116026497Y-100162866D01*
X116061236Y-100144298D01*
X116098923Y-100132865D01*
X116144261Y-100128400D01*
X117230939Y-100128400D01*
X117276277Y-100132865D01*
X117276277Y-100132865D01*
G37*
G36*
X102888491Y-99633846D02*
X102937713Y-99648778D01*
X102983077Y-99673026D01*
X103022841Y-99705659D01*
X103055474Y-99745423D01*
X103079722Y-99790787D01*
X103094654Y-99840009D01*
X103100300Y-99897340D01*
X103100300Y-100661060D01*
X103094654Y-100718391D01*
X103079722Y-100767613D01*
X103055474Y-100812977D01*
X103022841Y-100852741D01*
X102983077Y-100885374D01*
X102937713Y-100909622D01*
X102888491Y-100924554D01*
X102831160Y-100930200D01*
X101867440Y-100930200D01*
X101810109Y-100924554D01*
X101760887Y-100909622D01*
X101715523Y-100885374D01*
X101675759Y-100852741D01*
X101643126Y-100812977D01*
X101618878Y-100767613D01*
X101603946Y-100718391D01*
X101598300Y-100661060D01*
X101598300Y-99897340D01*
X101603946Y-99840009D01*
X101618878Y-99790787D01*
X101643126Y-99745423D01*
X101675759Y-99705659D01*
X101715523Y-99673026D01*
X101760887Y-99648778D01*
X101810109Y-99633846D01*
X101867440Y-99628200D01*
X102831160Y-99628200D01*
X102888491Y-99633846D01*
X102888491Y-99633846D01*
G37*
G36*
X100468491Y-99633846D02*
X100517713Y-99648778D01*
X100563077Y-99673026D01*
X100602841Y-99705659D01*
X100635474Y-99745423D01*
X100659722Y-99790787D01*
X100674654Y-99840009D01*
X100680300Y-99897340D01*
X100680300Y-100661060D01*
X100674654Y-100718391D01*
X100659722Y-100767613D01*
X100635474Y-100812977D01*
X100602841Y-100852741D01*
X100563077Y-100885374D01*
X100517713Y-100909622D01*
X100468491Y-100924554D01*
X100411160Y-100930200D01*
X99447440Y-100930200D01*
X99390109Y-100924554D01*
X99340887Y-100909622D01*
X99295523Y-100885374D01*
X99255759Y-100852741D01*
X99223126Y-100812977D01*
X99198878Y-100767613D01*
X99183946Y-100718391D01*
X99178300Y-100661060D01*
X99178300Y-99897340D01*
X99183946Y-99840009D01*
X99198878Y-99790787D01*
X99223126Y-99745423D01*
X99255759Y-99705659D01*
X99295523Y-99673026D01*
X99340887Y-99648778D01*
X99390109Y-99633846D01*
X99447440Y-99628200D01*
X100411160Y-99628200D01*
X100468491Y-99633846D01*
X100468491Y-99633846D01*
G37*
G36*
X108449777Y-99565065D02*
X108487464Y-99576498D01*
X108522203Y-99595066D01*
X108552648Y-99620052D01*
X108577634Y-99650497D01*
X108596202Y-99685236D01*
X108607635Y-99722923D01*
X108612100Y-99768261D01*
X108612100Y-100604939D01*
X108607635Y-100650277D01*
X108596202Y-100687964D01*
X108577634Y-100722703D01*
X108552648Y-100753148D01*
X108522203Y-100778134D01*
X108487464Y-100796702D01*
X108449777Y-100808135D01*
X108404439Y-100812600D01*
X107317761Y-100812600D01*
X107272423Y-100808135D01*
X107234736Y-100796702D01*
X107199997Y-100778134D01*
X107169552Y-100753148D01*
X107144566Y-100722703D01*
X107125998Y-100687964D01*
X107114565Y-100650277D01*
X107110100Y-100604939D01*
X107110100Y-99768261D01*
X107114565Y-99722923D01*
X107125998Y-99685236D01*
X107144566Y-99650497D01*
X107169552Y-99620052D01*
X107199997Y-99595066D01*
X107234736Y-99576498D01*
X107272423Y-99565065D01*
X107317761Y-99560600D01*
X108404439Y-99560600D01*
X108449777Y-99565065D01*
X108449777Y-99565065D01*
G37*
G36*
X105757377Y-99565065D02*
X105795064Y-99576498D01*
X105829803Y-99595066D01*
X105860248Y-99620052D01*
X105885234Y-99650497D01*
X105903802Y-99685236D01*
X105915235Y-99722923D01*
X105919700Y-99768261D01*
X105919700Y-100604939D01*
X105915235Y-100650277D01*
X105903802Y-100687964D01*
X105885234Y-100722703D01*
X105860248Y-100753148D01*
X105829803Y-100778134D01*
X105795064Y-100796702D01*
X105757377Y-100808135D01*
X105712039Y-100812600D01*
X104625361Y-100812600D01*
X104580023Y-100808135D01*
X104542336Y-100796702D01*
X104507597Y-100778134D01*
X104477152Y-100753148D01*
X104452166Y-100722703D01*
X104433598Y-100687964D01*
X104422165Y-100650277D01*
X104417700Y-100604939D01*
X104417700Y-99768261D01*
X104422165Y-99722923D01*
X104433598Y-99685236D01*
X104452166Y-99650497D01*
X104477152Y-99620052D01*
X104507597Y-99595066D01*
X104542336Y-99576498D01*
X104580023Y-99565065D01*
X104625361Y-99560600D01*
X105712039Y-99560600D01*
X105757377Y-99565065D01*
X105757377Y-99565065D01*
G37*
G36*
X97857977Y-99548665D02*
X97895664Y-99560098D01*
X97930403Y-99578666D01*
X97960848Y-99603652D01*
X97985834Y-99634097D01*
X98004402Y-99668836D01*
X98015835Y-99706523D01*
X98020300Y-99751861D01*
X98020300Y-100588539D01*
X98015835Y-100633877D01*
X98004402Y-100671564D01*
X97985834Y-100706303D01*
X97960848Y-100736748D01*
X97930403Y-100761734D01*
X97895664Y-100780302D01*
X97857977Y-100791735D01*
X97812639Y-100796200D01*
X96725961Y-100796200D01*
X96680623Y-100791735D01*
X96642936Y-100780302D01*
X96608197Y-100761734D01*
X96577752Y-100736748D01*
X96552766Y-100706303D01*
X96534198Y-100671564D01*
X96522765Y-100633877D01*
X96518300Y-100588539D01*
X96518300Y-99751861D01*
X96522765Y-99706523D01*
X96534198Y-99668836D01*
X96552766Y-99634097D01*
X96577752Y-99603652D01*
X96608197Y-99578666D01*
X96642936Y-99560098D01*
X96680623Y-99548665D01*
X96725961Y-99544200D01*
X97812639Y-99544200D01*
X97857977Y-99548665D01*
X97857977Y-99548665D01*
G37*
G36*
X139960477Y-98948465D02*
X139998164Y-98959898D01*
X140032903Y-98978466D01*
X140063348Y-99003452D01*
X140088334Y-99033897D01*
X140106902Y-99068636D01*
X140118335Y-99106323D01*
X140122800Y-99151661D01*
X140122800Y-100238339D01*
X140118335Y-100283677D01*
X140106902Y-100321364D01*
X140088334Y-100356103D01*
X140063348Y-100386548D01*
X140032903Y-100411534D01*
X139998164Y-100430102D01*
X139960477Y-100441535D01*
X139915139Y-100446000D01*
X139078461Y-100446000D01*
X139033123Y-100441535D01*
X138995436Y-100430102D01*
X138960697Y-100411534D01*
X138930252Y-100386548D01*
X138905266Y-100356103D01*
X138886698Y-100321364D01*
X138875265Y-100283677D01*
X138870800Y-100238339D01*
X138870800Y-99151661D01*
X138875265Y-99106323D01*
X138886698Y-99068636D01*
X138905266Y-99033897D01*
X138930252Y-99003452D01*
X138960697Y-98978466D01*
X138995436Y-98959898D01*
X139033123Y-98948465D01*
X139078461Y-98944000D01*
X139915139Y-98944000D01*
X139960477Y-98948465D01*
X139960477Y-98948465D01*
G37*
G36*
X137910477Y-98948465D02*
X137948164Y-98959898D01*
X137982903Y-98978466D01*
X138013348Y-99003452D01*
X138038334Y-99033897D01*
X138056902Y-99068636D01*
X138068335Y-99106323D01*
X138072800Y-99151661D01*
X138072800Y-100238339D01*
X138068335Y-100283677D01*
X138056902Y-100321364D01*
X138038334Y-100356103D01*
X138013348Y-100386548D01*
X137982903Y-100411534D01*
X137948164Y-100430102D01*
X137910477Y-100441535D01*
X137865139Y-100446000D01*
X137028461Y-100446000D01*
X136983123Y-100441535D01*
X136945436Y-100430102D01*
X136910697Y-100411534D01*
X136880252Y-100386548D01*
X136855266Y-100356103D01*
X136836698Y-100321364D01*
X136825265Y-100283677D01*
X136820800Y-100238339D01*
X136820800Y-99151661D01*
X136825265Y-99106323D01*
X136836698Y-99068636D01*
X136855266Y-99033897D01*
X136880252Y-99003452D01*
X136910697Y-98978466D01*
X136945436Y-98959898D01*
X136983123Y-98948465D01*
X137028461Y-98944000D01*
X137865139Y-98944000D01*
X137910477Y-98948465D01*
X137910477Y-98948465D01*
G37*
G36*
X111289800Y-99941600D02*
X110087800Y-99941600D01*
X110087800Y-98889600D01*
X111289800Y-98889600D01*
X111289800Y-99941600D01*
X111289800Y-99941600D01*
G37*
G36*
X114549800Y-99941600D02*
X113347800Y-99941600D01*
X113347800Y-98889600D01*
X114549800Y-98889600D01*
X114549800Y-99941600D01*
X114549800Y-99941600D01*
G37*
G36*
X125662596Y-97677546D02*
X125835666Y-97749234D01*
X125991430Y-97853312D01*
X126123888Y-97985770D01*
X126227966Y-98141534D01*
X126299654Y-98314604D01*
X126336200Y-98498333D01*
X126336200Y-98685667D01*
X126299654Y-98869396D01*
X126227966Y-99042466D01*
X126123888Y-99198230D01*
X125991430Y-99330688D01*
X125835666Y-99434766D01*
X125662596Y-99506454D01*
X125478867Y-99543000D01*
X125291533Y-99543000D01*
X125107804Y-99506454D01*
X124934734Y-99434766D01*
X124778970Y-99330688D01*
X124646512Y-99198230D01*
X124542434Y-99042466D01*
X124470746Y-98869396D01*
X124434200Y-98685667D01*
X124434200Y-98498333D01*
X124470746Y-98314604D01*
X124542434Y-98141534D01*
X124646512Y-97985770D01*
X124778970Y-97853312D01*
X124934734Y-97749234D01*
X125107804Y-97677546D01*
X125291533Y-97641000D01*
X125478867Y-97641000D01*
X125662596Y-97677546D01*
X125662596Y-97677546D01*
G37*
G36*
X130365396Y-97677546D02*
X130538466Y-97749234D01*
X130694230Y-97853312D01*
X130826688Y-97985770D01*
X130930766Y-98141534D01*
X131002454Y-98314604D01*
X131039000Y-98498333D01*
X131039000Y-98685667D01*
X131002454Y-98869396D01*
X130930766Y-99042466D01*
X130826688Y-99198230D01*
X130694230Y-99330688D01*
X130538466Y-99434766D01*
X130365396Y-99506454D01*
X130181667Y-99543000D01*
X129994333Y-99543000D01*
X129810604Y-99506454D01*
X129637534Y-99434766D01*
X129481770Y-99330688D01*
X129349312Y-99198230D01*
X129245234Y-99042466D01*
X129173546Y-98869396D01*
X129137000Y-98685667D01*
X129137000Y-98498333D01*
X129173546Y-98314604D01*
X129245234Y-98141534D01*
X129349312Y-97985770D01*
X129481770Y-97853312D01*
X129637534Y-97749234D01*
X129810604Y-97677546D01*
X129994333Y-97641000D01*
X130181667Y-97641000D01*
X130365396Y-97677546D01*
X130365396Y-97677546D01*
G37*
G36*
X135365396Y-97677546D02*
X135538466Y-97749234D01*
X135694230Y-97853312D01*
X135826688Y-97985770D01*
X135930766Y-98141534D01*
X136002454Y-98314604D01*
X136039000Y-98498333D01*
X136039000Y-98685667D01*
X136002454Y-98869396D01*
X135930766Y-99042466D01*
X135826688Y-99198230D01*
X135694230Y-99330688D01*
X135538466Y-99434766D01*
X135365396Y-99506454D01*
X135181667Y-99543000D01*
X134994333Y-99543000D01*
X134810604Y-99506454D01*
X134637534Y-99434766D01*
X134481770Y-99330688D01*
X134349312Y-99198230D01*
X134245234Y-99042466D01*
X134173546Y-98869396D01*
X134137000Y-98685667D01*
X134137000Y-98498333D01*
X134173546Y-98314604D01*
X134245234Y-98141534D01*
X134349312Y-97985770D01*
X134481770Y-97853312D01*
X134637534Y-97749234D01*
X134810604Y-97677546D01*
X134994333Y-97641000D01*
X135181667Y-97641000D01*
X135365396Y-97677546D01*
X135365396Y-97677546D01*
G37*
G36*
X120662596Y-97677546D02*
X120835666Y-97749234D01*
X120991430Y-97853312D01*
X121123888Y-97985770D01*
X121227966Y-98141534D01*
X121299654Y-98314604D01*
X121336200Y-98498333D01*
X121336200Y-98685667D01*
X121299654Y-98869396D01*
X121227966Y-99042466D01*
X121123888Y-99198230D01*
X120991430Y-99330688D01*
X120835666Y-99434766D01*
X120662596Y-99506454D01*
X120478867Y-99543000D01*
X120291533Y-99543000D01*
X120107804Y-99506454D01*
X119934734Y-99434766D01*
X119778970Y-99330688D01*
X119646512Y-99198230D01*
X119542434Y-99042466D01*
X119470746Y-98869396D01*
X119434200Y-98685667D01*
X119434200Y-98498333D01*
X119470746Y-98314604D01*
X119542434Y-98141534D01*
X119646512Y-97985770D01*
X119778970Y-97853312D01*
X119934734Y-97749234D01*
X120107804Y-97677546D01*
X120291533Y-97641000D01*
X120478867Y-97641000D01*
X120662596Y-97677546D01*
X120662596Y-97677546D01*
G37*
G36*
X117276277Y-98082865D02*
X117313964Y-98094298D01*
X117348703Y-98112866D01*
X117379148Y-98137852D01*
X117404134Y-98168297D01*
X117422702Y-98203036D01*
X117434135Y-98240723D01*
X117438600Y-98286061D01*
X117438600Y-99122739D01*
X117434135Y-99168077D01*
X117422702Y-99205764D01*
X117404134Y-99240503D01*
X117379148Y-99270948D01*
X117348703Y-99295934D01*
X117313964Y-99314502D01*
X117276277Y-99325935D01*
X117230939Y-99330400D01*
X116144261Y-99330400D01*
X116098923Y-99325935D01*
X116061236Y-99314502D01*
X116026497Y-99295934D01*
X115996052Y-99270948D01*
X115971066Y-99240503D01*
X115952498Y-99205764D01*
X115941065Y-99168077D01*
X115936600Y-99122739D01*
X115936600Y-98286061D01*
X115941065Y-98240723D01*
X115952498Y-98203036D01*
X115971066Y-98168297D01*
X115996052Y-98137852D01*
X116026497Y-98112866D01*
X116061236Y-98094298D01*
X116098923Y-98082865D01*
X116144261Y-98078400D01*
X117230939Y-98078400D01*
X117276277Y-98082865D01*
X117276277Y-98082865D01*
G37*
G36*
X108449777Y-97515065D02*
X108487464Y-97526498D01*
X108522203Y-97545066D01*
X108552648Y-97570052D01*
X108577634Y-97600497D01*
X108596202Y-97635236D01*
X108607635Y-97672923D01*
X108612100Y-97718261D01*
X108612100Y-98554939D01*
X108607635Y-98600277D01*
X108596202Y-98637964D01*
X108577634Y-98672703D01*
X108552648Y-98703148D01*
X108522203Y-98728134D01*
X108487464Y-98746702D01*
X108449777Y-98758135D01*
X108404439Y-98762600D01*
X107317761Y-98762600D01*
X107272423Y-98758135D01*
X107234736Y-98746702D01*
X107199997Y-98728134D01*
X107169552Y-98703148D01*
X107144566Y-98672703D01*
X107125998Y-98637964D01*
X107114565Y-98600277D01*
X107110100Y-98554939D01*
X107110100Y-97718261D01*
X107114565Y-97672923D01*
X107125998Y-97635236D01*
X107144566Y-97600497D01*
X107169552Y-97570052D01*
X107199997Y-97545066D01*
X107234736Y-97526498D01*
X107272423Y-97515065D01*
X107317761Y-97510600D01*
X108404439Y-97510600D01*
X108449777Y-97515065D01*
X108449777Y-97515065D01*
G37*
G36*
X105757377Y-97515065D02*
X105795064Y-97526498D01*
X105829803Y-97545066D01*
X105860248Y-97570052D01*
X105885234Y-97600497D01*
X105903802Y-97635236D01*
X105915235Y-97672923D01*
X105919700Y-97718261D01*
X105919700Y-98554939D01*
X105915235Y-98600277D01*
X105903802Y-98637964D01*
X105885234Y-98672703D01*
X105860248Y-98703148D01*
X105829803Y-98728134D01*
X105795064Y-98746702D01*
X105757377Y-98758135D01*
X105712039Y-98762600D01*
X104625361Y-98762600D01*
X104580023Y-98758135D01*
X104542336Y-98746702D01*
X104507597Y-98728134D01*
X104477152Y-98703148D01*
X104452166Y-98672703D01*
X104433598Y-98637964D01*
X104422165Y-98600277D01*
X104417700Y-98554939D01*
X104417700Y-97718261D01*
X104422165Y-97672923D01*
X104433598Y-97635236D01*
X104452166Y-97600497D01*
X104477152Y-97570052D01*
X104507597Y-97545066D01*
X104542336Y-97526498D01*
X104580023Y-97515065D01*
X104625361Y-97510600D01*
X105712039Y-97510600D01*
X105757377Y-97515065D01*
X105757377Y-97515065D01*
G37*
G36*
X97857977Y-97498665D02*
X97895664Y-97510098D01*
X97930403Y-97528666D01*
X97960848Y-97553652D01*
X97985834Y-97584097D01*
X98004402Y-97618836D01*
X98015835Y-97656523D01*
X98020300Y-97701861D01*
X98020300Y-98538539D01*
X98015835Y-98583877D01*
X98004402Y-98621564D01*
X97985834Y-98656303D01*
X97960848Y-98686748D01*
X97930403Y-98711734D01*
X97895664Y-98730302D01*
X97857977Y-98741735D01*
X97812639Y-98746200D01*
X96725961Y-98746200D01*
X96680623Y-98741735D01*
X96642936Y-98730302D01*
X96608197Y-98711734D01*
X96577752Y-98686748D01*
X96552766Y-98656303D01*
X96534198Y-98621564D01*
X96522765Y-98583877D01*
X96518300Y-98538539D01*
X96518300Y-97701861D01*
X96522765Y-97656523D01*
X96534198Y-97618836D01*
X96552766Y-97584097D01*
X96577752Y-97553652D01*
X96608197Y-97528666D01*
X96642936Y-97510098D01*
X96680623Y-97498665D01*
X96725961Y-97494200D01*
X97812639Y-97494200D01*
X97857977Y-97498665D01*
X97857977Y-97498665D01*
G37*
G36*
X102888491Y-97413846D02*
X102937713Y-97428778D01*
X102983077Y-97453026D01*
X103022841Y-97485659D01*
X103055474Y-97525423D01*
X103079722Y-97570787D01*
X103094654Y-97620009D01*
X103100300Y-97677340D01*
X103100300Y-98441060D01*
X103094654Y-98498391D01*
X103079722Y-98547613D01*
X103055474Y-98592977D01*
X103022841Y-98632741D01*
X102983077Y-98665374D01*
X102937713Y-98689622D01*
X102888491Y-98704554D01*
X102831160Y-98710200D01*
X101867440Y-98710200D01*
X101810109Y-98704554D01*
X101760887Y-98689622D01*
X101715523Y-98665374D01*
X101675759Y-98632741D01*
X101643126Y-98592977D01*
X101618878Y-98547613D01*
X101603946Y-98498391D01*
X101598300Y-98441060D01*
X101598300Y-97677340D01*
X101603946Y-97620009D01*
X101618878Y-97570787D01*
X101643126Y-97525423D01*
X101675759Y-97485659D01*
X101715523Y-97453026D01*
X101760887Y-97428778D01*
X101810109Y-97413846D01*
X101867440Y-97408200D01*
X102831160Y-97408200D01*
X102888491Y-97413846D01*
X102888491Y-97413846D01*
G37*
G36*
X100468491Y-97413846D02*
X100517713Y-97428778D01*
X100563077Y-97453026D01*
X100602841Y-97485659D01*
X100635474Y-97525423D01*
X100659722Y-97570787D01*
X100674654Y-97620009D01*
X100680300Y-97677340D01*
X100680300Y-98441060D01*
X100674654Y-98498391D01*
X100659722Y-98547613D01*
X100635474Y-98592977D01*
X100602841Y-98632741D01*
X100563077Y-98665374D01*
X100517713Y-98689622D01*
X100468491Y-98704554D01*
X100411160Y-98710200D01*
X99447440Y-98710200D01*
X99390109Y-98704554D01*
X99340887Y-98689622D01*
X99295523Y-98665374D01*
X99255759Y-98632741D01*
X99223126Y-98592977D01*
X99198878Y-98547613D01*
X99183946Y-98498391D01*
X99178300Y-98441060D01*
X99178300Y-97677340D01*
X99183946Y-97620009D01*
X99198878Y-97570787D01*
X99223126Y-97525423D01*
X99255759Y-97485659D01*
X99295523Y-97453026D01*
X99340887Y-97428778D01*
X99390109Y-97413846D01*
X99447440Y-97408200D01*
X100411160Y-97408200D01*
X100468491Y-97413846D01*
X100468491Y-97413846D01*
G37*
G36*
X140003877Y-96154465D02*
X140041564Y-96165898D01*
X140076303Y-96184466D01*
X140106748Y-96209452D01*
X140131734Y-96239897D01*
X140150302Y-96274636D01*
X140161735Y-96312323D01*
X140166200Y-96357661D01*
X140166200Y-97444339D01*
X140161735Y-97489677D01*
X140150302Y-97527364D01*
X140131734Y-97562103D01*
X140106748Y-97592548D01*
X140076303Y-97617534D01*
X140041564Y-97636102D01*
X140003877Y-97647535D01*
X139958539Y-97652000D01*
X139121861Y-97652000D01*
X139076523Y-97647535D01*
X139038836Y-97636102D01*
X139004097Y-97617534D01*
X138973652Y-97592548D01*
X138948666Y-97562103D01*
X138930098Y-97527364D01*
X138918665Y-97489677D01*
X138914200Y-97444339D01*
X138914200Y-96357661D01*
X138918665Y-96312323D01*
X138930098Y-96274636D01*
X138948666Y-96239897D01*
X138973652Y-96209452D01*
X139004097Y-96184466D01*
X139038836Y-96165898D01*
X139076523Y-96154465D01*
X139121861Y-96150000D01*
X139958539Y-96150000D01*
X140003877Y-96154465D01*
X140003877Y-96154465D01*
G37*
G36*
X137953877Y-96154465D02*
X137991564Y-96165898D01*
X138026303Y-96184466D01*
X138056748Y-96209452D01*
X138081734Y-96239897D01*
X138100302Y-96274636D01*
X138111735Y-96312323D01*
X138116200Y-96357661D01*
X138116200Y-97444339D01*
X138111735Y-97489677D01*
X138100302Y-97527364D01*
X138081734Y-97562103D01*
X138056748Y-97592548D01*
X138026303Y-97617534D01*
X137991564Y-97636102D01*
X137953877Y-97647535D01*
X137908539Y-97652000D01*
X137071861Y-97652000D01*
X137026523Y-97647535D01*
X136988836Y-97636102D01*
X136954097Y-97617534D01*
X136923652Y-97592548D01*
X136898666Y-97562103D01*
X136880098Y-97527364D01*
X136868665Y-97489677D01*
X136864200Y-97444339D01*
X136864200Y-96357661D01*
X136868665Y-96312323D01*
X136880098Y-96274636D01*
X136898666Y-96239897D01*
X136923652Y-96209452D01*
X136954097Y-96184466D01*
X136988836Y-96165898D01*
X137026523Y-96154465D01*
X137071861Y-96150000D01*
X137908539Y-96150000D01*
X137953877Y-96154465D01*
X137953877Y-96154465D01*
G37*
G36*
X126928277Y-95492065D02*
X126965964Y-95503498D01*
X127000703Y-95522066D01*
X127031148Y-95547052D01*
X127056134Y-95577497D01*
X127074702Y-95612236D01*
X127086135Y-95649923D01*
X127090600Y-95695261D01*
X127090600Y-96531939D01*
X127086135Y-96577277D01*
X127074702Y-96614964D01*
X127056134Y-96649703D01*
X127031148Y-96680148D01*
X127000703Y-96705134D01*
X126965964Y-96723702D01*
X126928277Y-96735135D01*
X126882939Y-96739600D01*
X125796261Y-96739600D01*
X125750923Y-96735135D01*
X125713236Y-96723702D01*
X125678497Y-96705134D01*
X125648052Y-96680148D01*
X125623066Y-96649703D01*
X125604498Y-96614964D01*
X125593065Y-96577277D01*
X125588600Y-96531939D01*
X125588600Y-95695261D01*
X125593065Y-95649923D01*
X125604498Y-95612236D01*
X125623066Y-95577497D01*
X125648052Y-95547052D01*
X125678497Y-95522066D01*
X125713236Y-95503498D01*
X125750923Y-95492065D01*
X125796261Y-95487600D01*
X126882939Y-95487600D01*
X126928277Y-95492065D01*
X126928277Y-95492065D01*
G37*
G36*
X121289477Y-95459265D02*
X121327164Y-95470698D01*
X121361903Y-95489266D01*
X121392348Y-95514252D01*
X121417334Y-95544697D01*
X121435902Y-95579436D01*
X121447335Y-95617123D01*
X121451800Y-95662461D01*
X121451800Y-96499139D01*
X121447335Y-96544477D01*
X121435902Y-96582164D01*
X121417334Y-96616903D01*
X121392348Y-96647348D01*
X121361903Y-96672334D01*
X121327164Y-96690902D01*
X121289477Y-96702335D01*
X121244139Y-96706800D01*
X120157461Y-96706800D01*
X120112123Y-96702335D01*
X120074436Y-96690902D01*
X120039697Y-96672334D01*
X120009252Y-96647348D01*
X119984266Y-96616903D01*
X119965698Y-96582164D01*
X119954265Y-96544477D01*
X119949800Y-96499139D01*
X119949800Y-95662461D01*
X119954265Y-95617123D01*
X119965698Y-95579436D01*
X119984266Y-95544697D01*
X120009252Y-95514252D01*
X120039697Y-95489266D01*
X120074436Y-95470698D01*
X120112123Y-95459265D01*
X120157461Y-95454800D01*
X121244139Y-95454800D01*
X121289477Y-95459265D01*
X121289477Y-95459265D01*
G37*
G36*
X124134277Y-95459265D02*
X124171964Y-95470698D01*
X124206703Y-95489266D01*
X124237148Y-95514252D01*
X124262134Y-95544697D01*
X124280702Y-95579436D01*
X124292135Y-95617123D01*
X124296600Y-95662461D01*
X124296600Y-96499139D01*
X124292135Y-96544477D01*
X124280702Y-96582164D01*
X124262134Y-96616903D01*
X124237148Y-96647348D01*
X124206703Y-96672334D01*
X124171964Y-96690902D01*
X124134277Y-96702335D01*
X124088939Y-96706800D01*
X123002261Y-96706800D01*
X122956923Y-96702335D01*
X122919236Y-96690902D01*
X122884497Y-96672334D01*
X122854052Y-96647348D01*
X122829066Y-96616903D01*
X122810498Y-96582164D01*
X122799065Y-96544477D01*
X122794600Y-96499139D01*
X122794600Y-95662461D01*
X122799065Y-95617123D01*
X122810498Y-95579436D01*
X122829066Y-95544697D01*
X122854052Y-95514252D01*
X122884497Y-95489266D01*
X122919236Y-95470698D01*
X122956923Y-95459265D01*
X123002261Y-95454800D01*
X124088939Y-95454800D01*
X124134277Y-95459265D01*
X124134277Y-95459265D01*
G37*
G36*
X116311077Y-95421165D02*
X116348764Y-95432598D01*
X116383503Y-95451166D01*
X116413948Y-95476152D01*
X116438934Y-95506597D01*
X116457502Y-95541336D01*
X116468935Y-95579023D01*
X116473400Y-95624361D01*
X116473400Y-96461039D01*
X116468935Y-96506377D01*
X116457502Y-96544064D01*
X116438934Y-96578803D01*
X116413948Y-96609248D01*
X116383503Y-96634234D01*
X116348764Y-96652802D01*
X116311077Y-96664235D01*
X116265739Y-96668700D01*
X115179061Y-96668700D01*
X115133723Y-96664235D01*
X115096036Y-96652802D01*
X115061297Y-96634234D01*
X115030852Y-96609248D01*
X115005866Y-96578803D01*
X114987298Y-96544064D01*
X114975865Y-96506377D01*
X114971400Y-96461039D01*
X114971400Y-95624361D01*
X114975865Y-95579023D01*
X114987298Y-95541336D01*
X115005866Y-95506597D01*
X115030852Y-95476152D01*
X115061297Y-95451166D01*
X115096036Y-95432598D01*
X115133723Y-95421165D01*
X115179061Y-95416700D01*
X116265739Y-95416700D01*
X116311077Y-95421165D01*
X116311077Y-95421165D01*
G37*
G36*
X111192977Y-95399465D02*
X111230664Y-95410898D01*
X111265403Y-95429466D01*
X111295848Y-95454452D01*
X111320834Y-95484897D01*
X111339402Y-95519636D01*
X111350835Y-95557323D01*
X111355300Y-95602661D01*
X111355300Y-96439339D01*
X111350835Y-96484677D01*
X111339402Y-96522364D01*
X111320834Y-96557103D01*
X111295848Y-96587548D01*
X111265403Y-96612534D01*
X111230664Y-96631102D01*
X111192977Y-96642535D01*
X111147639Y-96647000D01*
X110060961Y-96647000D01*
X110015623Y-96642535D01*
X109977936Y-96631102D01*
X109943197Y-96612534D01*
X109912752Y-96587548D01*
X109887766Y-96557103D01*
X109869198Y-96522364D01*
X109857765Y-96484677D01*
X109853300Y-96439339D01*
X109853300Y-95602661D01*
X109857765Y-95557323D01*
X109869198Y-95519636D01*
X109887766Y-95484897D01*
X109912752Y-95454452D01*
X109943197Y-95429466D01*
X109977936Y-95410898D01*
X110015623Y-95399465D01*
X110060961Y-95395000D01*
X111147639Y-95395000D01*
X111192977Y-95399465D01*
X111192977Y-95399465D01*
G37*
G36*
X113732977Y-95390465D02*
X113770664Y-95401898D01*
X113805403Y-95420466D01*
X113835848Y-95445452D01*
X113860834Y-95475897D01*
X113879402Y-95510636D01*
X113890835Y-95548323D01*
X113895300Y-95593661D01*
X113895300Y-96430339D01*
X113890835Y-96475677D01*
X113879402Y-96513364D01*
X113860834Y-96548103D01*
X113835848Y-96578548D01*
X113805403Y-96603534D01*
X113770664Y-96622102D01*
X113732977Y-96633535D01*
X113687639Y-96638000D01*
X112600961Y-96638000D01*
X112555623Y-96633535D01*
X112517936Y-96622102D01*
X112483197Y-96603534D01*
X112452752Y-96578548D01*
X112427766Y-96548103D01*
X112409198Y-96513364D01*
X112397765Y-96475677D01*
X112393300Y-96430339D01*
X112393300Y-95593661D01*
X112397765Y-95548323D01*
X112409198Y-95510636D01*
X112427766Y-95475897D01*
X112452752Y-95445452D01*
X112483197Y-95420466D01*
X112517936Y-95401898D01*
X112555623Y-95390465D01*
X112600961Y-95386000D01*
X113687639Y-95386000D01*
X113732977Y-95390465D01*
X113732977Y-95390465D01*
G37*
G36*
X118576099Y-95310845D02*
X118613593Y-95322219D01*
X118648157Y-95340694D01*
X118678447Y-95365553D01*
X118703306Y-95395843D01*
X118721781Y-95430407D01*
X118733155Y-95467901D01*
X118737600Y-95513038D01*
X118737600Y-96251762D01*
X118733155Y-96296899D01*
X118721781Y-96334393D01*
X118703306Y-96368957D01*
X118678447Y-96399247D01*
X118648157Y-96424106D01*
X118613593Y-96442581D01*
X118576099Y-96453955D01*
X118530962Y-96458400D01*
X117892238Y-96458400D01*
X117847101Y-96453955D01*
X117809607Y-96442581D01*
X117775043Y-96424106D01*
X117744753Y-96399247D01*
X117719894Y-96368957D01*
X117701419Y-96334393D01*
X117690045Y-96296899D01*
X117685600Y-96251762D01*
X117685600Y-95513038D01*
X117690045Y-95467901D01*
X117701419Y-95430407D01*
X117719894Y-95395843D01*
X117744753Y-95365553D01*
X117775043Y-95340694D01*
X117809607Y-95322219D01*
X117847101Y-95310845D01*
X117892238Y-95306400D01*
X118530962Y-95306400D01*
X118576099Y-95310845D01*
X118576099Y-95310845D01*
G37*
G36*
X135976400Y-96047100D02*
X134984400Y-96047100D01*
X134984400Y-93640100D01*
X135976400Y-93640100D01*
X135976400Y-96047100D01*
X135976400Y-96047100D01*
G37*
G36*
X131766400Y-96047100D02*
X130774400Y-96047100D01*
X130774400Y-93640100D01*
X131766400Y-93640100D01*
X131766400Y-96047100D01*
X131766400Y-96047100D01*
G37*
G36*
X134266400Y-95834600D02*
X132484400Y-95834600D01*
X132484400Y-93852600D01*
X134266400Y-93852600D01*
X134266400Y-95834600D01*
X134266400Y-95834600D01*
G37*
G36*
X108471300Y-95623200D02*
X102069300Y-95623200D01*
X102069300Y-94071200D01*
X108471300Y-94071200D01*
X108471300Y-95623200D01*
X108471300Y-95623200D01*
G37*
G36*
X94935289Y-92201106D02*
X95078640Y-92215225D01*
X95323880Y-92289618D01*
X95323882Y-92289619D01*
X95549896Y-92410426D01*
X95747997Y-92573003D01*
X95910574Y-92771104D01*
X95910575Y-92771106D01*
X96031382Y-92997120D01*
X96105775Y-93242360D01*
X96130894Y-93497400D01*
X96105775Y-93752440D01*
X96031382Y-93997680D01*
X96031381Y-93997682D01*
X95910574Y-94223696D01*
X95747997Y-94421797D01*
X95549896Y-94584374D01*
X95438847Y-94643731D01*
X95323880Y-94705182D01*
X95078640Y-94779575D01*
X94935289Y-94793694D01*
X94887506Y-94798400D01*
X92259694Y-94798400D01*
X92211911Y-94793694D01*
X92068560Y-94779575D01*
X91823320Y-94705182D01*
X91708353Y-94643731D01*
X91597304Y-94584374D01*
X91399203Y-94421797D01*
X91236626Y-94223696D01*
X91115819Y-93997682D01*
X91115818Y-93997680D01*
X91041425Y-93752440D01*
X91016306Y-93497400D01*
X91041425Y-93242360D01*
X91115818Y-92997120D01*
X91236625Y-92771106D01*
X91236626Y-92771104D01*
X91399203Y-92573003D01*
X91597304Y-92410426D01*
X91823318Y-92289619D01*
X91823320Y-92289618D01*
X92068560Y-92215225D01*
X92211911Y-92201106D01*
X92259694Y-92196400D01*
X94887506Y-92196400D01*
X94935289Y-92201106D01*
X94935289Y-92201106D01*
G37*
G36*
X140016577Y-93284265D02*
X140054264Y-93295698D01*
X140089003Y-93314266D01*
X140119448Y-93339252D01*
X140144434Y-93369697D01*
X140163002Y-93404436D01*
X140174435Y-93442123D01*
X140178900Y-93487461D01*
X140178900Y-94574139D01*
X140174435Y-94619477D01*
X140163002Y-94657164D01*
X140144434Y-94691903D01*
X140119448Y-94722348D01*
X140089003Y-94747334D01*
X140054264Y-94765902D01*
X140016577Y-94777335D01*
X139971239Y-94781800D01*
X139134561Y-94781800D01*
X139089223Y-94777335D01*
X139051536Y-94765902D01*
X139016797Y-94747334D01*
X138986352Y-94722348D01*
X138961366Y-94691903D01*
X138942798Y-94657164D01*
X138931365Y-94619477D01*
X138926900Y-94574139D01*
X138926900Y-93487461D01*
X138931365Y-93442123D01*
X138942798Y-93404436D01*
X138961366Y-93369697D01*
X138986352Y-93339252D01*
X139016797Y-93314266D01*
X139051536Y-93295698D01*
X139089223Y-93284265D01*
X139134561Y-93279800D01*
X139971239Y-93279800D01*
X140016577Y-93284265D01*
X140016577Y-93284265D01*
G37*
G36*
X137966577Y-93284265D02*
X138004264Y-93295698D01*
X138039003Y-93314266D01*
X138069448Y-93339252D01*
X138094434Y-93369697D01*
X138113002Y-93404436D01*
X138124435Y-93442123D01*
X138128900Y-93487461D01*
X138128900Y-94574139D01*
X138124435Y-94619477D01*
X138113002Y-94657164D01*
X138094434Y-94691903D01*
X138069448Y-94722348D01*
X138039003Y-94747334D01*
X138004264Y-94765902D01*
X137966577Y-94777335D01*
X137921239Y-94781800D01*
X137084561Y-94781800D01*
X137039223Y-94777335D01*
X137001536Y-94765902D01*
X136966797Y-94747334D01*
X136936352Y-94722348D01*
X136911366Y-94691903D01*
X136892798Y-94657164D01*
X136881365Y-94619477D01*
X136876900Y-94574139D01*
X136876900Y-93487461D01*
X136881365Y-93442123D01*
X136892798Y-93404436D01*
X136911366Y-93369697D01*
X136936352Y-93339252D01*
X136966797Y-93314266D01*
X137001536Y-93295698D01*
X137039223Y-93284265D01*
X137084561Y-93279800D01*
X137921239Y-93279800D01*
X137966577Y-93284265D01*
X137966577Y-93284265D01*
G37*
G36*
X118576099Y-93560845D02*
X118613593Y-93572219D01*
X118648157Y-93590694D01*
X118678447Y-93615553D01*
X118703306Y-93645843D01*
X118721781Y-93680407D01*
X118733155Y-93717901D01*
X118737600Y-93763038D01*
X118737600Y-94501762D01*
X118733155Y-94546899D01*
X118721781Y-94584393D01*
X118703306Y-94618957D01*
X118678447Y-94649247D01*
X118648157Y-94674106D01*
X118613593Y-94692581D01*
X118576099Y-94703955D01*
X118530962Y-94708400D01*
X117892238Y-94708400D01*
X117847101Y-94703955D01*
X117809607Y-94692581D01*
X117775043Y-94674106D01*
X117744753Y-94649247D01*
X117719894Y-94618957D01*
X117701419Y-94584393D01*
X117690045Y-94546899D01*
X117685600Y-94501762D01*
X117685600Y-93763038D01*
X117690045Y-93717901D01*
X117701419Y-93680407D01*
X117719894Y-93645843D01*
X117744753Y-93615553D01*
X117775043Y-93590694D01*
X117809607Y-93572219D01*
X117847101Y-93560845D01*
X117892238Y-93556400D01*
X118530962Y-93556400D01*
X118576099Y-93560845D01*
X118576099Y-93560845D01*
G37*
G36*
X126928277Y-93442065D02*
X126965964Y-93453498D01*
X127000703Y-93472066D01*
X127031148Y-93497052D01*
X127056134Y-93527497D01*
X127074702Y-93562236D01*
X127086135Y-93599923D01*
X127090600Y-93645261D01*
X127090600Y-94481939D01*
X127086135Y-94527277D01*
X127074702Y-94564964D01*
X127056134Y-94599703D01*
X127031148Y-94630148D01*
X127000703Y-94655134D01*
X126965964Y-94673702D01*
X126928277Y-94685135D01*
X126882939Y-94689600D01*
X125796261Y-94689600D01*
X125750923Y-94685135D01*
X125713236Y-94673702D01*
X125678497Y-94655134D01*
X125648052Y-94630148D01*
X125623066Y-94599703D01*
X125604498Y-94564964D01*
X125593065Y-94527277D01*
X125588600Y-94481939D01*
X125588600Y-93645261D01*
X125593065Y-93599923D01*
X125604498Y-93562236D01*
X125623066Y-93527497D01*
X125648052Y-93497052D01*
X125678497Y-93472066D01*
X125713236Y-93453498D01*
X125750923Y-93442065D01*
X125796261Y-93437600D01*
X126882939Y-93437600D01*
X126928277Y-93442065D01*
X126928277Y-93442065D01*
G37*
G36*
X124134277Y-93409265D02*
X124171964Y-93420698D01*
X124206703Y-93439266D01*
X124237148Y-93464252D01*
X124262134Y-93494697D01*
X124280702Y-93529436D01*
X124292135Y-93567123D01*
X124296600Y-93612461D01*
X124296600Y-94449139D01*
X124292135Y-94494477D01*
X124280702Y-94532164D01*
X124262134Y-94566903D01*
X124237148Y-94597348D01*
X124206703Y-94622334D01*
X124171964Y-94640902D01*
X124134277Y-94652335D01*
X124088939Y-94656800D01*
X123002261Y-94656800D01*
X122956923Y-94652335D01*
X122919236Y-94640902D01*
X122884497Y-94622334D01*
X122854052Y-94597348D01*
X122829066Y-94566903D01*
X122810498Y-94532164D01*
X122799065Y-94494477D01*
X122794600Y-94449139D01*
X122794600Y-93612461D01*
X122799065Y-93567123D01*
X122810498Y-93529436D01*
X122829066Y-93494697D01*
X122854052Y-93464252D01*
X122884497Y-93439266D01*
X122919236Y-93420698D01*
X122956923Y-93409265D01*
X123002261Y-93404800D01*
X124088939Y-93404800D01*
X124134277Y-93409265D01*
X124134277Y-93409265D01*
G37*
G36*
X121289477Y-93409265D02*
X121327164Y-93420698D01*
X121361903Y-93439266D01*
X121392348Y-93464252D01*
X121417334Y-93494697D01*
X121435902Y-93529436D01*
X121447335Y-93567123D01*
X121451800Y-93612461D01*
X121451800Y-94449139D01*
X121447335Y-94494477D01*
X121435902Y-94532164D01*
X121417334Y-94566903D01*
X121392348Y-94597348D01*
X121361903Y-94622334D01*
X121327164Y-94640902D01*
X121289477Y-94652335D01*
X121244139Y-94656800D01*
X120157461Y-94656800D01*
X120112123Y-94652335D01*
X120074436Y-94640902D01*
X120039697Y-94622334D01*
X120009252Y-94597348D01*
X119984266Y-94566903D01*
X119965698Y-94532164D01*
X119954265Y-94494477D01*
X119949800Y-94449139D01*
X119949800Y-93612461D01*
X119954265Y-93567123D01*
X119965698Y-93529436D01*
X119984266Y-93494697D01*
X120009252Y-93464252D01*
X120039697Y-93439266D01*
X120074436Y-93420698D01*
X120112123Y-93409265D01*
X120157461Y-93404800D01*
X121244139Y-93404800D01*
X121289477Y-93409265D01*
X121289477Y-93409265D01*
G37*
G36*
X116311077Y-93371165D02*
X116348764Y-93382598D01*
X116383503Y-93401166D01*
X116413948Y-93426152D01*
X116438934Y-93456597D01*
X116457502Y-93491336D01*
X116468935Y-93529023D01*
X116473400Y-93574361D01*
X116473400Y-94411039D01*
X116468935Y-94456377D01*
X116457502Y-94494064D01*
X116438934Y-94528803D01*
X116413948Y-94559248D01*
X116383503Y-94584234D01*
X116348764Y-94602802D01*
X116311077Y-94614235D01*
X116265739Y-94618700D01*
X115179061Y-94618700D01*
X115133723Y-94614235D01*
X115096036Y-94602802D01*
X115061297Y-94584234D01*
X115030852Y-94559248D01*
X115005866Y-94528803D01*
X114987298Y-94494064D01*
X114975865Y-94456377D01*
X114971400Y-94411039D01*
X114971400Y-93574361D01*
X114975865Y-93529023D01*
X114987298Y-93491336D01*
X115005866Y-93456597D01*
X115030852Y-93426152D01*
X115061297Y-93401166D01*
X115096036Y-93382598D01*
X115133723Y-93371165D01*
X115179061Y-93366700D01*
X116265739Y-93366700D01*
X116311077Y-93371165D01*
X116311077Y-93371165D01*
G37*
G36*
X111192977Y-93349465D02*
X111230664Y-93360898D01*
X111265403Y-93379466D01*
X111295848Y-93404452D01*
X111320834Y-93434897D01*
X111339402Y-93469636D01*
X111350835Y-93507323D01*
X111355300Y-93552661D01*
X111355300Y-94389339D01*
X111350835Y-94434677D01*
X111339402Y-94472364D01*
X111320834Y-94507103D01*
X111295848Y-94537548D01*
X111265403Y-94562534D01*
X111230664Y-94581102D01*
X111192977Y-94592535D01*
X111147639Y-94597000D01*
X110060961Y-94597000D01*
X110015623Y-94592535D01*
X109977936Y-94581102D01*
X109943197Y-94562534D01*
X109912752Y-94537548D01*
X109887766Y-94507103D01*
X109869198Y-94472364D01*
X109857765Y-94434677D01*
X109853300Y-94389339D01*
X109853300Y-93552661D01*
X109857765Y-93507323D01*
X109869198Y-93469636D01*
X109887766Y-93434897D01*
X109912752Y-93404452D01*
X109943197Y-93379466D01*
X109977936Y-93360898D01*
X110015623Y-93349465D01*
X110060961Y-93345000D01*
X111147639Y-93345000D01*
X111192977Y-93349465D01*
X111192977Y-93349465D01*
G37*
G36*
X113732977Y-93340465D02*
X113770664Y-93351898D01*
X113805403Y-93370466D01*
X113835848Y-93395452D01*
X113860834Y-93425897D01*
X113879402Y-93460636D01*
X113890835Y-93498323D01*
X113895300Y-93543661D01*
X113895300Y-94380339D01*
X113890835Y-94425677D01*
X113879402Y-94463364D01*
X113860834Y-94498103D01*
X113835848Y-94528548D01*
X113805403Y-94553534D01*
X113770664Y-94572102D01*
X113732977Y-94583535D01*
X113687639Y-94588000D01*
X112600961Y-94588000D01*
X112555623Y-94583535D01*
X112517936Y-94572102D01*
X112483197Y-94553534D01*
X112452752Y-94528548D01*
X112427766Y-94498103D01*
X112409198Y-94463364D01*
X112397765Y-94425677D01*
X112393300Y-94380339D01*
X112393300Y-93543661D01*
X112397765Y-93498323D01*
X112409198Y-93460636D01*
X112427766Y-93425897D01*
X112452752Y-93395452D01*
X112483197Y-93370466D01*
X112517936Y-93351898D01*
X112555623Y-93340465D01*
X112600961Y-93336000D01*
X113687639Y-93336000D01*
X113732977Y-93340465D01*
X113732977Y-93340465D01*
G37*
G36*
X100829777Y-92376865D02*
X100867464Y-92388298D01*
X100902203Y-92406866D01*
X100932648Y-92431852D01*
X100957634Y-92462297D01*
X100976202Y-92497036D01*
X100987635Y-92534723D01*
X100992100Y-92580061D01*
X100992100Y-93416739D01*
X100987635Y-93462077D01*
X100976202Y-93499764D01*
X100957634Y-93534503D01*
X100932648Y-93564948D01*
X100902203Y-93589934D01*
X100867464Y-93608502D01*
X100829777Y-93619935D01*
X100784439Y-93624400D01*
X99697761Y-93624400D01*
X99652423Y-93619935D01*
X99614736Y-93608502D01*
X99579997Y-93589934D01*
X99549552Y-93564948D01*
X99524566Y-93534503D01*
X99505998Y-93499764D01*
X99494565Y-93462077D01*
X99490100Y-93416739D01*
X99490100Y-92580061D01*
X99494565Y-92534723D01*
X99505998Y-92497036D01*
X99524566Y-92462297D01*
X99549552Y-92431852D01*
X99579997Y-92406866D01*
X99614736Y-92388298D01*
X99652423Y-92376865D01*
X99697761Y-92372400D01*
X100784439Y-92372400D01*
X100829777Y-92376865D01*
X100829777Y-92376865D01*
G37*
G36*
X107421300Y-93448200D02*
X103119300Y-93448200D01*
X103119300Y-90346200D01*
X107421300Y-90346200D01*
X107421300Y-93448200D01*
X107421300Y-93448200D01*
G37*
G36*
X137960227Y-90185465D02*
X137997914Y-90196898D01*
X138032653Y-90215466D01*
X138063098Y-90240452D01*
X138088084Y-90270897D01*
X138106652Y-90305636D01*
X138118085Y-90343323D01*
X138122550Y-90388661D01*
X138122550Y-91475339D01*
X138118085Y-91520677D01*
X138106652Y-91558364D01*
X138088084Y-91593103D01*
X138063098Y-91623548D01*
X138032653Y-91648534D01*
X137997914Y-91667102D01*
X137960227Y-91678535D01*
X137914889Y-91683000D01*
X137078211Y-91683000D01*
X137032873Y-91678535D01*
X136995186Y-91667102D01*
X136960447Y-91648534D01*
X136930002Y-91623548D01*
X136905016Y-91593103D01*
X136886448Y-91558364D01*
X136875015Y-91520677D01*
X136870550Y-91475339D01*
X136870550Y-90388661D01*
X136875015Y-90343323D01*
X136886448Y-90305636D01*
X136905016Y-90270897D01*
X136930002Y-90240452D01*
X136960447Y-90215466D01*
X136995186Y-90196898D01*
X137032873Y-90185465D01*
X137078211Y-90181000D01*
X137914889Y-90181000D01*
X137960227Y-90185465D01*
X137960227Y-90185465D01*
G37*
G36*
X140010227Y-90185465D02*
X140047914Y-90196898D01*
X140082653Y-90215466D01*
X140113098Y-90240452D01*
X140138084Y-90270897D01*
X140156652Y-90305636D01*
X140168085Y-90343323D01*
X140172550Y-90388661D01*
X140172550Y-91475339D01*
X140168085Y-91520677D01*
X140156652Y-91558364D01*
X140138084Y-91593103D01*
X140113098Y-91623548D01*
X140082653Y-91648534D01*
X140047914Y-91667102D01*
X140010227Y-91678535D01*
X139964889Y-91683000D01*
X139128211Y-91683000D01*
X139082873Y-91678535D01*
X139045186Y-91667102D01*
X139010447Y-91648534D01*
X138980002Y-91623548D01*
X138955016Y-91593103D01*
X138936448Y-91558364D01*
X138925015Y-91520677D01*
X138920550Y-91475339D01*
X138920550Y-90388661D01*
X138925015Y-90343323D01*
X138936448Y-90305636D01*
X138955016Y-90270897D01*
X138980002Y-90240452D01*
X139010447Y-90215466D01*
X139045186Y-90196898D01*
X139082873Y-90185465D01*
X139128211Y-90181000D01*
X139964889Y-90181000D01*
X140010227Y-90185465D01*
X140010227Y-90185465D01*
G37*
G36*
X100829777Y-90326865D02*
X100867464Y-90338298D01*
X100902203Y-90356866D01*
X100932648Y-90381852D01*
X100957634Y-90412297D01*
X100976202Y-90447036D01*
X100987635Y-90484723D01*
X100992100Y-90530061D01*
X100992100Y-91366739D01*
X100987635Y-91412077D01*
X100976202Y-91449764D01*
X100957634Y-91484503D01*
X100932648Y-91514948D01*
X100902203Y-91539934D01*
X100867464Y-91558502D01*
X100829777Y-91569935D01*
X100784439Y-91574400D01*
X99697761Y-91574400D01*
X99652423Y-91569935D01*
X99614736Y-91558502D01*
X99579997Y-91539934D01*
X99549552Y-91514948D01*
X99524566Y-91484503D01*
X99505998Y-91449764D01*
X99494565Y-91412077D01*
X99490100Y-91366739D01*
X99490100Y-90530061D01*
X99494565Y-90484723D01*
X99505998Y-90447036D01*
X99524566Y-90412297D01*
X99549552Y-90381852D01*
X99579997Y-90356866D01*
X99614736Y-90338298D01*
X99652423Y-90326865D01*
X99697761Y-90322400D01*
X100784439Y-90322400D01*
X100829777Y-90326865D01*
X100829777Y-90326865D01*
G37*
G36*
X135887500Y-91522600D02*
X134895500Y-91522600D01*
X134895500Y-87750600D01*
X135887500Y-87750600D01*
X135887500Y-91522600D01*
X135887500Y-91522600D01*
G37*
G36*
X131677500Y-91522600D02*
X130685500Y-91522600D01*
X130685500Y-87750600D01*
X131677500Y-87750600D01*
X131677500Y-91522600D01*
X131677500Y-91522600D01*
G37*
G36*
X134162500Y-91112600D02*
X132410500Y-91112600D01*
X132410500Y-88160600D01*
X134162500Y-88160600D01*
X134162500Y-91112600D01*
X134162500Y-91112600D01*
G37*
G36*
X126928277Y-89650065D02*
X126965964Y-89661498D01*
X127000703Y-89680066D01*
X127031148Y-89705052D01*
X127056134Y-89735497D01*
X127074702Y-89770236D01*
X127086135Y-89807923D01*
X127090600Y-89853261D01*
X127090600Y-90689939D01*
X127086135Y-90735277D01*
X127074702Y-90772964D01*
X127056134Y-90807703D01*
X127031148Y-90838148D01*
X127000703Y-90863134D01*
X126965964Y-90881702D01*
X126928277Y-90893135D01*
X126882939Y-90897600D01*
X125796261Y-90897600D01*
X125750923Y-90893135D01*
X125713236Y-90881702D01*
X125678497Y-90863134D01*
X125648052Y-90838148D01*
X125623066Y-90807703D01*
X125604498Y-90772964D01*
X125593065Y-90735277D01*
X125588600Y-90689939D01*
X125588600Y-89853261D01*
X125593065Y-89807923D01*
X125604498Y-89770236D01*
X125623066Y-89735497D01*
X125648052Y-89705052D01*
X125678497Y-89680066D01*
X125713236Y-89661498D01*
X125750923Y-89650065D01*
X125796261Y-89645600D01*
X126882939Y-89645600D01*
X126928277Y-89650065D01*
X126928277Y-89650065D01*
G37*
G36*
X111218377Y-89617265D02*
X111256064Y-89628698D01*
X111290803Y-89647266D01*
X111321248Y-89672252D01*
X111346234Y-89702697D01*
X111364802Y-89737436D01*
X111376235Y-89775123D01*
X111380700Y-89820461D01*
X111380700Y-90657139D01*
X111376235Y-90702477D01*
X111364802Y-90740164D01*
X111346234Y-90774903D01*
X111321248Y-90805348D01*
X111290803Y-90830334D01*
X111256064Y-90848902D01*
X111218377Y-90860335D01*
X111173039Y-90864800D01*
X110086361Y-90864800D01*
X110041023Y-90860335D01*
X110003336Y-90848902D01*
X109968597Y-90830334D01*
X109938152Y-90805348D01*
X109913166Y-90774903D01*
X109894598Y-90740164D01*
X109883165Y-90702477D01*
X109878700Y-90657139D01*
X109878700Y-89820461D01*
X109883165Y-89775123D01*
X109894598Y-89737436D01*
X109913166Y-89702697D01*
X109938152Y-89672252D01*
X109968597Y-89647266D01*
X110003336Y-89628698D01*
X110041023Y-89617265D01*
X110086361Y-89612800D01*
X111173039Y-89612800D01*
X111218377Y-89617265D01*
X111218377Y-89617265D01*
G37*
G36*
X113783777Y-89617265D02*
X113821464Y-89628698D01*
X113856203Y-89647266D01*
X113886648Y-89672252D01*
X113911634Y-89702697D01*
X113930202Y-89737436D01*
X113941635Y-89775123D01*
X113946100Y-89820461D01*
X113946100Y-90657139D01*
X113941635Y-90702477D01*
X113930202Y-90740164D01*
X113911634Y-90774903D01*
X113886648Y-90805348D01*
X113856203Y-90830334D01*
X113821464Y-90848902D01*
X113783777Y-90860335D01*
X113738439Y-90864800D01*
X112651761Y-90864800D01*
X112606423Y-90860335D01*
X112568736Y-90848902D01*
X112533997Y-90830334D01*
X112503552Y-90805348D01*
X112478566Y-90774903D01*
X112459998Y-90740164D01*
X112448565Y-90702477D01*
X112444100Y-90657139D01*
X112444100Y-89820461D01*
X112448565Y-89775123D01*
X112459998Y-89737436D01*
X112478566Y-89702697D01*
X112503552Y-89672252D01*
X112533997Y-89647266D01*
X112568736Y-89628698D01*
X112606423Y-89617265D01*
X112651761Y-89612800D01*
X113738439Y-89612800D01*
X113783777Y-89617265D01*
X113783777Y-89617265D01*
G37*
G36*
X124134277Y-89617265D02*
X124171964Y-89628698D01*
X124206703Y-89647266D01*
X124237148Y-89672252D01*
X124262134Y-89702697D01*
X124280702Y-89737436D01*
X124292135Y-89775123D01*
X124296600Y-89820461D01*
X124296600Y-90657139D01*
X124292135Y-90702477D01*
X124280702Y-90740164D01*
X124262134Y-90774903D01*
X124237148Y-90805348D01*
X124206703Y-90830334D01*
X124171964Y-90848902D01*
X124134277Y-90860335D01*
X124088939Y-90864800D01*
X123002261Y-90864800D01*
X122956923Y-90860335D01*
X122919236Y-90848902D01*
X122884497Y-90830334D01*
X122854052Y-90805348D01*
X122829066Y-90774903D01*
X122810498Y-90740164D01*
X122799065Y-90702477D01*
X122794600Y-90657139D01*
X122794600Y-89820461D01*
X122799065Y-89775123D01*
X122810498Y-89737436D01*
X122829066Y-89702697D01*
X122854052Y-89672252D01*
X122884497Y-89647266D01*
X122919236Y-89628698D01*
X122956923Y-89617265D01*
X123002261Y-89612800D01*
X124088939Y-89612800D01*
X124134277Y-89617265D01*
X124134277Y-89617265D01*
G37*
G36*
X121289477Y-89617265D02*
X121327164Y-89628698D01*
X121361903Y-89647266D01*
X121392348Y-89672252D01*
X121417334Y-89702697D01*
X121435902Y-89737436D01*
X121447335Y-89775123D01*
X121451800Y-89820461D01*
X121451800Y-90657139D01*
X121447335Y-90702477D01*
X121435902Y-90740164D01*
X121417334Y-90774903D01*
X121392348Y-90805348D01*
X121361903Y-90830334D01*
X121327164Y-90848902D01*
X121289477Y-90860335D01*
X121244139Y-90864800D01*
X120157461Y-90864800D01*
X120112123Y-90860335D01*
X120074436Y-90848902D01*
X120039697Y-90830334D01*
X120009252Y-90805348D01*
X119984266Y-90774903D01*
X119965698Y-90740164D01*
X119954265Y-90702477D01*
X119949800Y-90657139D01*
X119949800Y-89820461D01*
X119954265Y-89775123D01*
X119965698Y-89737436D01*
X119984266Y-89702697D01*
X120009252Y-89672252D01*
X120039697Y-89647266D01*
X120074436Y-89628698D01*
X120112123Y-89617265D01*
X120157461Y-89612800D01*
X121244139Y-89612800D01*
X121289477Y-89617265D01*
X121289477Y-89617265D01*
G37*
G36*
X116323777Y-89599265D02*
X116361464Y-89610698D01*
X116396203Y-89629266D01*
X116426648Y-89654252D01*
X116451634Y-89684697D01*
X116470202Y-89719436D01*
X116481635Y-89757123D01*
X116486100Y-89802461D01*
X116486100Y-90639139D01*
X116481635Y-90684477D01*
X116470202Y-90722164D01*
X116451634Y-90756903D01*
X116426648Y-90787348D01*
X116396203Y-90812334D01*
X116361464Y-90830902D01*
X116323777Y-90842335D01*
X116278439Y-90846800D01*
X115191761Y-90846800D01*
X115146423Y-90842335D01*
X115108736Y-90830902D01*
X115073997Y-90812334D01*
X115043552Y-90787348D01*
X115018566Y-90756903D01*
X114999998Y-90722164D01*
X114988565Y-90684477D01*
X114984100Y-90639139D01*
X114984100Y-89802461D01*
X114988565Y-89757123D01*
X114999998Y-89719436D01*
X115018566Y-89684697D01*
X115043552Y-89654252D01*
X115073997Y-89629266D01*
X115108736Y-89610698D01*
X115146423Y-89599265D01*
X115191761Y-89594800D01*
X116278439Y-89594800D01*
X116323777Y-89599265D01*
X116323777Y-89599265D01*
G37*
G36*
X118576099Y-89468845D02*
X118613593Y-89480219D01*
X118648157Y-89498694D01*
X118678447Y-89523553D01*
X118703306Y-89553843D01*
X118721781Y-89588407D01*
X118733155Y-89625901D01*
X118737600Y-89671038D01*
X118737600Y-90409762D01*
X118733155Y-90454899D01*
X118721781Y-90492393D01*
X118703306Y-90526957D01*
X118678447Y-90557247D01*
X118648157Y-90582106D01*
X118613593Y-90600581D01*
X118576099Y-90611955D01*
X118530962Y-90616400D01*
X117892238Y-90616400D01*
X117847101Y-90611955D01*
X117809607Y-90600581D01*
X117775043Y-90582106D01*
X117744753Y-90557247D01*
X117719894Y-90526957D01*
X117701419Y-90492393D01*
X117690045Y-90454899D01*
X117685600Y-90409762D01*
X117685600Y-89671038D01*
X117690045Y-89625901D01*
X117701419Y-89588407D01*
X117719894Y-89553843D01*
X117744753Y-89523553D01*
X117775043Y-89498694D01*
X117809607Y-89480219D01*
X117847101Y-89468845D01*
X117892238Y-89464400D01*
X118530962Y-89464400D01*
X118576099Y-89468845D01*
X118576099Y-89468845D01*
G37*
G36*
X108471300Y-89723200D02*
X102069300Y-89723200D01*
X102069300Y-88171200D01*
X108471300Y-88171200D01*
X108471300Y-89723200D01*
X108471300Y-89723200D01*
G37*
G36*
X137995677Y-87391465D02*
X138033364Y-87402898D01*
X138068103Y-87421466D01*
X138098548Y-87446452D01*
X138123534Y-87476897D01*
X138142102Y-87511636D01*
X138153535Y-87549323D01*
X138158000Y-87594661D01*
X138158000Y-88681339D01*
X138153535Y-88726677D01*
X138142102Y-88764364D01*
X138123534Y-88799103D01*
X138098548Y-88829548D01*
X138068103Y-88854534D01*
X138033364Y-88873102D01*
X137995677Y-88884535D01*
X137950339Y-88889000D01*
X137113661Y-88889000D01*
X137068323Y-88884535D01*
X137030636Y-88873102D01*
X136995897Y-88854534D01*
X136965452Y-88829548D01*
X136940466Y-88799103D01*
X136921898Y-88764364D01*
X136910465Y-88726677D01*
X136906000Y-88681339D01*
X136906000Y-87594661D01*
X136910465Y-87549323D01*
X136921898Y-87511636D01*
X136940466Y-87476897D01*
X136965452Y-87446452D01*
X136995897Y-87421466D01*
X137030636Y-87402898D01*
X137068323Y-87391465D01*
X137113661Y-87387000D01*
X137950339Y-87387000D01*
X137995677Y-87391465D01*
X137995677Y-87391465D01*
G37*
G36*
X140045677Y-87391465D02*
X140083364Y-87402898D01*
X140118103Y-87421466D01*
X140148548Y-87446452D01*
X140173534Y-87476897D01*
X140192102Y-87511636D01*
X140203535Y-87549323D01*
X140208000Y-87594661D01*
X140208000Y-88681339D01*
X140203535Y-88726677D01*
X140192102Y-88764364D01*
X140173534Y-88799103D01*
X140148548Y-88829548D01*
X140118103Y-88854534D01*
X140083364Y-88873102D01*
X140045677Y-88884535D01*
X140000339Y-88889000D01*
X139163661Y-88889000D01*
X139118323Y-88884535D01*
X139080636Y-88873102D01*
X139045897Y-88854534D01*
X139015452Y-88829548D01*
X138990466Y-88799103D01*
X138971898Y-88764364D01*
X138960465Y-88726677D01*
X138956000Y-88681339D01*
X138956000Y-87594661D01*
X138960465Y-87549323D01*
X138971898Y-87511636D01*
X138990466Y-87476897D01*
X139015452Y-87446452D01*
X139045897Y-87421466D01*
X139080636Y-87402898D01*
X139118323Y-87391465D01*
X139163661Y-87387000D01*
X140000339Y-87387000D01*
X140045677Y-87391465D01*
X140045677Y-87391465D01*
G37*
G36*
X118576099Y-87718845D02*
X118613593Y-87730219D01*
X118648157Y-87748694D01*
X118678447Y-87773553D01*
X118703306Y-87803843D01*
X118721781Y-87838407D01*
X118733155Y-87875901D01*
X118737600Y-87921038D01*
X118737600Y-88659762D01*
X118733155Y-88704899D01*
X118721781Y-88742393D01*
X118703306Y-88776957D01*
X118678447Y-88807247D01*
X118648157Y-88832106D01*
X118613593Y-88850581D01*
X118576099Y-88861955D01*
X118530962Y-88866400D01*
X117892238Y-88866400D01*
X117847101Y-88861955D01*
X117809607Y-88850581D01*
X117775043Y-88832106D01*
X117744753Y-88807247D01*
X117719894Y-88776957D01*
X117701419Y-88742393D01*
X117690045Y-88704899D01*
X117685600Y-88659762D01*
X117685600Y-87921038D01*
X117690045Y-87875901D01*
X117701419Y-87838407D01*
X117719894Y-87803843D01*
X117744753Y-87773553D01*
X117775043Y-87748694D01*
X117809607Y-87730219D01*
X117847101Y-87718845D01*
X117892238Y-87714400D01*
X118530962Y-87714400D01*
X118576099Y-87718845D01*
X118576099Y-87718845D01*
G37*
G36*
X126928277Y-87600065D02*
X126965964Y-87611498D01*
X127000703Y-87630066D01*
X127031148Y-87655052D01*
X127056134Y-87685497D01*
X127074702Y-87720236D01*
X127086135Y-87757923D01*
X127090600Y-87803261D01*
X127090600Y-88639939D01*
X127086135Y-88685277D01*
X127074702Y-88722964D01*
X127056134Y-88757703D01*
X127031148Y-88788148D01*
X127000703Y-88813134D01*
X126965964Y-88831702D01*
X126928277Y-88843135D01*
X126882939Y-88847600D01*
X125796261Y-88847600D01*
X125750923Y-88843135D01*
X125713236Y-88831702D01*
X125678497Y-88813134D01*
X125648052Y-88788148D01*
X125623066Y-88757703D01*
X125604498Y-88722964D01*
X125593065Y-88685277D01*
X125588600Y-88639939D01*
X125588600Y-87803261D01*
X125593065Y-87757923D01*
X125604498Y-87720236D01*
X125623066Y-87685497D01*
X125648052Y-87655052D01*
X125678497Y-87630066D01*
X125713236Y-87611498D01*
X125750923Y-87600065D01*
X125796261Y-87595600D01*
X126882939Y-87595600D01*
X126928277Y-87600065D01*
X126928277Y-87600065D01*
G37*
G36*
X111218377Y-87567265D02*
X111256064Y-87578698D01*
X111290803Y-87597266D01*
X111321248Y-87622252D01*
X111346234Y-87652697D01*
X111364802Y-87687436D01*
X111376235Y-87725123D01*
X111380700Y-87770461D01*
X111380700Y-88607139D01*
X111376235Y-88652477D01*
X111364802Y-88690164D01*
X111346234Y-88724903D01*
X111321248Y-88755348D01*
X111290803Y-88780334D01*
X111256064Y-88798902D01*
X111218377Y-88810335D01*
X111173039Y-88814800D01*
X110086361Y-88814800D01*
X110041023Y-88810335D01*
X110003336Y-88798902D01*
X109968597Y-88780334D01*
X109938152Y-88755348D01*
X109913166Y-88724903D01*
X109894598Y-88690164D01*
X109883165Y-88652477D01*
X109878700Y-88607139D01*
X109878700Y-87770461D01*
X109883165Y-87725123D01*
X109894598Y-87687436D01*
X109913166Y-87652697D01*
X109938152Y-87622252D01*
X109968597Y-87597266D01*
X110003336Y-87578698D01*
X110041023Y-87567265D01*
X110086361Y-87562800D01*
X111173039Y-87562800D01*
X111218377Y-87567265D01*
X111218377Y-87567265D01*
G37*
G36*
X113783777Y-87567265D02*
X113821464Y-87578698D01*
X113856203Y-87597266D01*
X113886648Y-87622252D01*
X113911634Y-87652697D01*
X113930202Y-87687436D01*
X113941635Y-87725123D01*
X113946100Y-87770461D01*
X113946100Y-88607139D01*
X113941635Y-88652477D01*
X113930202Y-88690164D01*
X113911634Y-88724903D01*
X113886648Y-88755348D01*
X113856203Y-88780334D01*
X113821464Y-88798902D01*
X113783777Y-88810335D01*
X113738439Y-88814800D01*
X112651761Y-88814800D01*
X112606423Y-88810335D01*
X112568736Y-88798902D01*
X112533997Y-88780334D01*
X112503552Y-88755348D01*
X112478566Y-88724903D01*
X112459998Y-88690164D01*
X112448565Y-88652477D01*
X112444100Y-88607139D01*
X112444100Y-87770461D01*
X112448565Y-87725123D01*
X112459998Y-87687436D01*
X112478566Y-87652697D01*
X112503552Y-87622252D01*
X112533997Y-87597266D01*
X112568736Y-87578698D01*
X112606423Y-87567265D01*
X112651761Y-87562800D01*
X113738439Y-87562800D01*
X113783777Y-87567265D01*
X113783777Y-87567265D01*
G37*
G36*
X121289477Y-87567265D02*
X121327164Y-87578698D01*
X121361903Y-87597266D01*
X121392348Y-87622252D01*
X121417334Y-87652697D01*
X121435902Y-87687436D01*
X121447335Y-87725123D01*
X121451800Y-87770461D01*
X121451800Y-88607139D01*
X121447335Y-88652477D01*
X121435902Y-88690164D01*
X121417334Y-88724903D01*
X121392348Y-88755348D01*
X121361903Y-88780334D01*
X121327164Y-88798902D01*
X121289477Y-88810335D01*
X121244139Y-88814800D01*
X120157461Y-88814800D01*
X120112123Y-88810335D01*
X120074436Y-88798902D01*
X120039697Y-88780334D01*
X120009252Y-88755348D01*
X119984266Y-88724903D01*
X119965698Y-88690164D01*
X119954265Y-88652477D01*
X119949800Y-88607139D01*
X119949800Y-87770461D01*
X119954265Y-87725123D01*
X119965698Y-87687436D01*
X119984266Y-87652697D01*
X120009252Y-87622252D01*
X120039697Y-87597266D01*
X120074436Y-87578698D01*
X120112123Y-87567265D01*
X120157461Y-87562800D01*
X121244139Y-87562800D01*
X121289477Y-87567265D01*
X121289477Y-87567265D01*
G37*
G36*
X124134277Y-87567265D02*
X124171964Y-87578698D01*
X124206703Y-87597266D01*
X124237148Y-87622252D01*
X124262134Y-87652697D01*
X124280702Y-87687436D01*
X124292135Y-87725123D01*
X124296600Y-87770461D01*
X124296600Y-88607139D01*
X124292135Y-88652477D01*
X124280702Y-88690164D01*
X124262134Y-88724903D01*
X124237148Y-88755348D01*
X124206703Y-88780334D01*
X124171964Y-88798902D01*
X124134277Y-88810335D01*
X124088939Y-88814800D01*
X123002261Y-88814800D01*
X122956923Y-88810335D01*
X122919236Y-88798902D01*
X122884497Y-88780334D01*
X122854052Y-88755348D01*
X122829066Y-88724903D01*
X122810498Y-88690164D01*
X122799065Y-88652477D01*
X122794600Y-88607139D01*
X122794600Y-87770461D01*
X122799065Y-87725123D01*
X122810498Y-87687436D01*
X122829066Y-87652697D01*
X122854052Y-87622252D01*
X122884497Y-87597266D01*
X122919236Y-87578698D01*
X122956923Y-87567265D01*
X123002261Y-87562800D01*
X124088939Y-87562800D01*
X124134277Y-87567265D01*
X124134277Y-87567265D01*
G37*
G36*
X116323777Y-87549265D02*
X116361464Y-87560698D01*
X116396203Y-87579266D01*
X116426648Y-87604252D01*
X116451634Y-87634697D01*
X116470202Y-87669436D01*
X116481635Y-87707123D01*
X116486100Y-87752461D01*
X116486100Y-88589139D01*
X116481635Y-88634477D01*
X116470202Y-88672164D01*
X116451634Y-88706903D01*
X116426648Y-88737348D01*
X116396203Y-88762334D01*
X116361464Y-88780902D01*
X116323777Y-88792335D01*
X116278439Y-88796800D01*
X115191761Y-88796800D01*
X115146423Y-88792335D01*
X115108736Y-88780902D01*
X115073997Y-88762334D01*
X115043552Y-88737348D01*
X115018566Y-88706903D01*
X114999998Y-88672164D01*
X114988565Y-88634477D01*
X114984100Y-88589139D01*
X114984100Y-87752461D01*
X114988565Y-87707123D01*
X114999998Y-87669436D01*
X115018566Y-87634697D01*
X115043552Y-87604252D01*
X115073997Y-87579266D01*
X115108736Y-87560698D01*
X115146423Y-87549265D01*
X115191761Y-87544800D01*
X116278439Y-87544800D01*
X116323777Y-87549265D01*
X116323777Y-87549265D01*
G37*
G36*
X94929136Y-86338416D02*
X95150813Y-86405661D01*
X95355112Y-86514861D01*
X95534181Y-86661819D01*
X95681139Y-86840888D01*
X95790339Y-87045187D01*
X95857584Y-87266864D01*
X95880290Y-87497400D01*
X95857584Y-87727936D01*
X95790339Y-87949613D01*
X95681139Y-88153912D01*
X95534181Y-88332981D01*
X95355112Y-88479939D01*
X95150813Y-88589139D01*
X94929136Y-88656384D01*
X94756371Y-88673400D01*
X92390829Y-88673400D01*
X92218064Y-88656384D01*
X91996387Y-88589139D01*
X91792088Y-88479939D01*
X91613019Y-88332981D01*
X91466061Y-88153912D01*
X91356861Y-87949613D01*
X91289616Y-87727936D01*
X91266910Y-87497400D01*
X91289616Y-87266864D01*
X91356861Y-87045187D01*
X91466061Y-86840888D01*
X91613019Y-86661819D01*
X91792088Y-86514861D01*
X91996387Y-86405661D01*
X92218064Y-86338416D01*
X92390829Y-86321400D01*
X94756371Y-86321400D01*
X94929136Y-86338416D01*
X94929136Y-86338416D01*
G37*
G36*
X103124122Y-85249287D02*
X103187414Y-85268487D01*
X103245748Y-85299667D01*
X103296874Y-85341626D01*
X103338833Y-85392752D01*
X103370013Y-85451086D01*
X103389213Y-85514378D01*
X103396300Y-85586339D01*
X103396300Y-86500061D01*
X103389213Y-86572022D01*
X103370013Y-86635314D01*
X103338833Y-86693648D01*
X103296874Y-86744774D01*
X103245748Y-86786733D01*
X103187414Y-86817913D01*
X103124122Y-86837113D01*
X103052161Y-86844200D01*
X101138439Y-86844200D01*
X101066478Y-86837113D01*
X101003186Y-86817913D01*
X100944852Y-86786733D01*
X100893726Y-86744774D01*
X100851767Y-86693648D01*
X100820587Y-86635314D01*
X100801387Y-86572022D01*
X100794300Y-86500061D01*
X100794300Y-85586339D01*
X100801387Y-85514378D01*
X100820587Y-85451086D01*
X100851767Y-85392752D01*
X100893726Y-85341626D01*
X100944852Y-85299667D01*
X101003186Y-85268487D01*
X101066478Y-85249287D01*
X101138439Y-85242200D01*
X103052161Y-85242200D01*
X103124122Y-85249287D01*
X103124122Y-85249287D01*
G37*
G36*
X130365396Y-84643546D02*
X130538466Y-84715234D01*
X130694230Y-84819312D01*
X130826688Y-84951770D01*
X130930766Y-85107534D01*
X131002454Y-85280604D01*
X131039000Y-85464333D01*
X131039000Y-85651667D01*
X131002454Y-85835396D01*
X130930766Y-86008466D01*
X130826688Y-86164230D01*
X130694230Y-86296688D01*
X130538466Y-86400766D01*
X130365396Y-86472454D01*
X130181667Y-86509000D01*
X129994333Y-86509000D01*
X129810604Y-86472454D01*
X129637534Y-86400766D01*
X129481770Y-86296688D01*
X129349312Y-86164230D01*
X129245234Y-86008466D01*
X129173546Y-85835396D01*
X129137000Y-85651667D01*
X129137000Y-85464333D01*
X129173546Y-85280604D01*
X129245234Y-85107534D01*
X129349312Y-84951770D01*
X129481770Y-84819312D01*
X129637534Y-84715234D01*
X129810604Y-84643546D01*
X129994333Y-84607000D01*
X130181667Y-84607000D01*
X130365396Y-84643546D01*
X130365396Y-84643546D01*
G37*
G36*
X135365396Y-84643546D02*
X135538466Y-84715234D01*
X135694230Y-84819312D01*
X135826688Y-84951770D01*
X135930766Y-85107534D01*
X136002454Y-85280604D01*
X136039000Y-85464333D01*
X136039000Y-85651667D01*
X136002454Y-85835396D01*
X135930766Y-86008466D01*
X135826688Y-86164230D01*
X135694230Y-86296688D01*
X135538466Y-86400766D01*
X135365396Y-86472454D01*
X135181667Y-86509000D01*
X134994333Y-86509000D01*
X134810604Y-86472454D01*
X134637534Y-86400766D01*
X134481770Y-86296688D01*
X134349312Y-86164230D01*
X134245234Y-86008466D01*
X134173546Y-85835396D01*
X134137000Y-85651667D01*
X134137000Y-85464333D01*
X134173546Y-85280604D01*
X134245234Y-85107534D01*
X134349312Y-84951770D01*
X134481770Y-84819312D01*
X134637534Y-84715234D01*
X134810604Y-84643546D01*
X134994333Y-84607000D01*
X135181667Y-84607000D01*
X135365396Y-84643546D01*
X135365396Y-84643546D01*
G37*
G36*
X126221396Y-84592746D02*
X126394466Y-84664434D01*
X126550230Y-84768512D01*
X126682688Y-84900970D01*
X126786766Y-85056734D01*
X126858454Y-85229804D01*
X126895000Y-85413533D01*
X126895000Y-85600867D01*
X126858454Y-85784596D01*
X126786766Y-85957666D01*
X126682688Y-86113430D01*
X126550230Y-86245888D01*
X126394466Y-86349966D01*
X126221396Y-86421654D01*
X126037667Y-86458200D01*
X125850333Y-86458200D01*
X125666604Y-86421654D01*
X125493534Y-86349966D01*
X125337770Y-86245888D01*
X125205312Y-86113430D01*
X125101234Y-85957666D01*
X125029546Y-85784596D01*
X124993000Y-85600867D01*
X124993000Y-85413533D01*
X125029546Y-85229804D01*
X125101234Y-85056734D01*
X125205312Y-84900970D01*
X125337770Y-84768512D01*
X125493534Y-84664434D01*
X125666604Y-84592746D01*
X125850333Y-84556200D01*
X126037667Y-84556200D01*
X126221396Y-84592746D01*
X126221396Y-84592746D01*
G37*
G36*
X121221396Y-84592746D02*
X121394466Y-84664434D01*
X121550230Y-84768512D01*
X121682688Y-84900970D01*
X121786766Y-85056734D01*
X121858454Y-85229804D01*
X121895000Y-85413533D01*
X121895000Y-85600867D01*
X121858454Y-85784596D01*
X121786766Y-85957666D01*
X121682688Y-86113430D01*
X121550230Y-86245888D01*
X121394466Y-86349966D01*
X121221396Y-86421654D01*
X121037667Y-86458200D01*
X120850333Y-86458200D01*
X120666604Y-86421654D01*
X120493534Y-86349966D01*
X120337770Y-86245888D01*
X120205312Y-86113430D01*
X120101234Y-85957666D01*
X120029546Y-85784596D01*
X119993000Y-85600867D01*
X119993000Y-85413533D01*
X120029546Y-85229804D01*
X120101234Y-85056734D01*
X120205312Y-84900970D01*
X120337770Y-84768512D01*
X120493534Y-84664434D01*
X120666604Y-84592746D01*
X120850333Y-84556200D01*
X121037667Y-84556200D01*
X121221396Y-84592746D01*
X121221396Y-84592746D01*
G37*
G36*
X140054677Y-84597465D02*
X140092364Y-84608898D01*
X140127103Y-84627466D01*
X140157548Y-84652452D01*
X140182534Y-84682897D01*
X140201102Y-84717636D01*
X140212535Y-84755323D01*
X140217000Y-84800661D01*
X140217000Y-85887339D01*
X140212535Y-85932677D01*
X140201102Y-85970364D01*
X140182534Y-86005103D01*
X140157548Y-86035548D01*
X140127103Y-86060534D01*
X140092364Y-86079102D01*
X140054677Y-86090535D01*
X140009339Y-86095000D01*
X139172661Y-86095000D01*
X139127323Y-86090535D01*
X139089636Y-86079102D01*
X139054897Y-86060534D01*
X139024452Y-86035548D01*
X138999466Y-86005103D01*
X138980898Y-85970364D01*
X138969465Y-85932677D01*
X138965000Y-85887339D01*
X138965000Y-84800661D01*
X138969465Y-84755323D01*
X138980898Y-84717636D01*
X138999466Y-84682897D01*
X139024452Y-84652452D01*
X139054897Y-84627466D01*
X139089636Y-84608898D01*
X139127323Y-84597465D01*
X139172661Y-84593000D01*
X140009339Y-84593000D01*
X140054677Y-84597465D01*
X140054677Y-84597465D01*
G37*
G36*
X138004677Y-84597465D02*
X138042364Y-84608898D01*
X138077103Y-84627466D01*
X138107548Y-84652452D01*
X138132534Y-84682897D01*
X138151102Y-84717636D01*
X138162535Y-84755323D01*
X138167000Y-84800661D01*
X138167000Y-85887339D01*
X138162535Y-85932677D01*
X138151102Y-85970364D01*
X138132534Y-86005103D01*
X138107548Y-86035548D01*
X138077103Y-86060534D01*
X138042364Y-86079102D01*
X138004677Y-86090535D01*
X137959339Y-86095000D01*
X137122661Y-86095000D01*
X137077323Y-86090535D01*
X137039636Y-86079102D01*
X137004897Y-86060534D01*
X136974452Y-86035548D01*
X136949466Y-86005103D01*
X136930898Y-85970364D01*
X136919465Y-85932677D01*
X136915000Y-85887339D01*
X136915000Y-84800661D01*
X136919465Y-84755323D01*
X136930898Y-84717636D01*
X136949466Y-84682897D01*
X136974452Y-84652452D01*
X137004897Y-84627466D01*
X137039636Y-84608898D01*
X137077323Y-84597465D01*
X137122661Y-84593000D01*
X137959339Y-84593000D01*
X138004677Y-84597465D01*
X138004677Y-84597465D01*
G37*
G36*
X105858977Y-84798665D02*
X105896664Y-84810098D01*
X105931403Y-84828666D01*
X105961848Y-84853652D01*
X105986834Y-84884097D01*
X106005402Y-84918836D01*
X106016835Y-84956523D01*
X106021300Y-85001861D01*
X106021300Y-85838539D01*
X106016835Y-85883877D01*
X106005402Y-85921564D01*
X105986834Y-85956303D01*
X105961848Y-85986748D01*
X105931403Y-86011734D01*
X105896664Y-86030302D01*
X105858977Y-86041735D01*
X105813639Y-86046200D01*
X104726961Y-86046200D01*
X104681623Y-86041735D01*
X104643936Y-86030302D01*
X104609197Y-86011734D01*
X104578752Y-85986748D01*
X104553766Y-85956303D01*
X104535198Y-85921564D01*
X104523765Y-85883877D01*
X104519300Y-85838539D01*
X104519300Y-85001861D01*
X104523765Y-84956523D01*
X104535198Y-84918836D01*
X104553766Y-84884097D01*
X104578752Y-84853652D01*
X104609197Y-84828666D01*
X104643936Y-84810098D01*
X104681623Y-84798665D01*
X104726961Y-84794200D01*
X105813639Y-84794200D01*
X105858977Y-84798665D01*
X105858977Y-84798665D01*
G37*
G36*
X112201977Y-84546665D02*
X112239664Y-84558098D01*
X112274403Y-84576666D01*
X112304848Y-84601652D01*
X112329834Y-84632097D01*
X112348402Y-84666836D01*
X112359835Y-84704523D01*
X112364300Y-84749861D01*
X112364300Y-85836539D01*
X112359835Y-85881877D01*
X112348402Y-85919564D01*
X112329834Y-85954303D01*
X112304848Y-85984748D01*
X112274403Y-86009734D01*
X112239664Y-86028302D01*
X112201977Y-86039735D01*
X112156639Y-86044200D01*
X111319961Y-86044200D01*
X111274623Y-86039735D01*
X111236936Y-86028302D01*
X111202197Y-86009734D01*
X111171752Y-85984748D01*
X111146766Y-85954303D01*
X111128198Y-85919564D01*
X111116765Y-85881877D01*
X111112300Y-85836539D01*
X111112300Y-84749861D01*
X111116765Y-84704523D01*
X111128198Y-84666836D01*
X111146766Y-84632097D01*
X111171752Y-84601652D01*
X111202197Y-84576666D01*
X111236936Y-84558098D01*
X111274623Y-84546665D01*
X111319961Y-84542200D01*
X112156639Y-84542200D01*
X112201977Y-84546665D01*
X112201977Y-84546665D01*
G37*
G36*
X107892977Y-84546665D02*
X107930664Y-84558098D01*
X107965403Y-84576666D01*
X107995848Y-84601652D01*
X108020834Y-84632097D01*
X108039402Y-84666836D01*
X108050835Y-84704523D01*
X108055300Y-84749861D01*
X108055300Y-85836539D01*
X108050835Y-85881877D01*
X108039402Y-85919564D01*
X108020834Y-85954303D01*
X107995848Y-85984748D01*
X107965403Y-86009734D01*
X107930664Y-86028302D01*
X107892977Y-86039735D01*
X107847639Y-86044200D01*
X107010961Y-86044200D01*
X106965623Y-86039735D01*
X106927936Y-86028302D01*
X106893197Y-86009734D01*
X106862752Y-85984748D01*
X106837766Y-85954303D01*
X106819198Y-85919564D01*
X106807765Y-85881877D01*
X106803300Y-85836539D01*
X106803300Y-84749861D01*
X106807765Y-84704523D01*
X106819198Y-84666836D01*
X106837766Y-84632097D01*
X106862752Y-84601652D01*
X106893197Y-84576666D01*
X106927936Y-84558098D01*
X106965623Y-84546665D01*
X107010961Y-84542200D01*
X107847639Y-84542200D01*
X107892977Y-84546665D01*
X107892977Y-84546665D01*
G37*
G36*
X114251977Y-84546665D02*
X114289664Y-84558098D01*
X114324403Y-84576666D01*
X114354848Y-84601652D01*
X114379834Y-84632097D01*
X114398402Y-84666836D01*
X114409835Y-84704523D01*
X114414300Y-84749861D01*
X114414300Y-85836539D01*
X114409835Y-85881877D01*
X114398402Y-85919564D01*
X114379834Y-85954303D01*
X114354848Y-85984748D01*
X114324403Y-86009734D01*
X114289664Y-86028302D01*
X114251977Y-86039735D01*
X114206639Y-86044200D01*
X113369961Y-86044200D01*
X113324623Y-86039735D01*
X113286936Y-86028302D01*
X113252197Y-86009734D01*
X113221752Y-85984748D01*
X113196766Y-85954303D01*
X113178198Y-85919564D01*
X113166765Y-85881877D01*
X113162300Y-85836539D01*
X113162300Y-84749861D01*
X113166765Y-84704523D01*
X113178198Y-84666836D01*
X113196766Y-84632097D01*
X113221752Y-84601652D01*
X113252197Y-84576666D01*
X113286936Y-84558098D01*
X113324623Y-84546665D01*
X113369961Y-84542200D01*
X114206639Y-84542200D01*
X114251977Y-84546665D01*
X114251977Y-84546665D01*
G37*
G36*
X109942977Y-84546665D02*
X109980664Y-84558098D01*
X110015403Y-84576666D01*
X110045848Y-84601652D01*
X110070834Y-84632097D01*
X110089402Y-84666836D01*
X110100835Y-84704523D01*
X110105300Y-84749861D01*
X110105300Y-85836539D01*
X110100835Y-85881877D01*
X110089402Y-85919564D01*
X110070834Y-85954303D01*
X110045848Y-85984748D01*
X110015403Y-86009734D01*
X109980664Y-86028302D01*
X109942977Y-86039735D01*
X109897639Y-86044200D01*
X109060961Y-86044200D01*
X109015623Y-86039735D01*
X108977936Y-86028302D01*
X108943197Y-86009734D01*
X108912752Y-85984748D01*
X108887766Y-85954303D01*
X108869198Y-85919564D01*
X108857765Y-85881877D01*
X108853300Y-85836539D01*
X108853300Y-84749861D01*
X108857765Y-84704523D01*
X108869198Y-84666836D01*
X108887766Y-84632097D01*
X108912752Y-84601652D01*
X108943197Y-84576666D01*
X108977936Y-84558098D01*
X109015623Y-84546665D01*
X109060961Y-84542200D01*
X109897639Y-84542200D01*
X109942977Y-84546665D01*
X109942977Y-84546665D01*
G37*
G36*
X118573677Y-84495865D02*
X118611364Y-84507298D01*
X118646103Y-84525866D01*
X118676548Y-84550852D01*
X118701534Y-84581297D01*
X118720102Y-84616036D01*
X118731535Y-84653723D01*
X118736000Y-84699061D01*
X118736000Y-85785739D01*
X118731535Y-85831077D01*
X118720102Y-85868764D01*
X118701534Y-85903503D01*
X118676548Y-85933948D01*
X118646103Y-85958934D01*
X118611364Y-85977502D01*
X118573677Y-85988935D01*
X118528339Y-85993400D01*
X117691661Y-85993400D01*
X117646323Y-85988935D01*
X117608636Y-85977502D01*
X117573897Y-85958934D01*
X117543452Y-85933948D01*
X117518466Y-85903503D01*
X117499898Y-85868764D01*
X117488465Y-85831077D01*
X117484000Y-85785739D01*
X117484000Y-84699061D01*
X117488465Y-84653723D01*
X117499898Y-84616036D01*
X117518466Y-84581297D01*
X117543452Y-84550852D01*
X117573897Y-84525866D01*
X117608636Y-84507298D01*
X117646323Y-84495865D01*
X117691661Y-84491400D01*
X118528339Y-84491400D01*
X118573677Y-84495865D01*
X118573677Y-84495865D01*
G37*
G36*
X116523677Y-84495865D02*
X116561364Y-84507298D01*
X116596103Y-84525866D01*
X116626548Y-84550852D01*
X116651534Y-84581297D01*
X116670102Y-84616036D01*
X116681535Y-84653723D01*
X116686000Y-84699061D01*
X116686000Y-85785739D01*
X116681535Y-85831077D01*
X116670102Y-85868764D01*
X116651534Y-85903503D01*
X116626548Y-85933948D01*
X116596103Y-85958934D01*
X116561364Y-85977502D01*
X116523677Y-85988935D01*
X116478339Y-85993400D01*
X115641661Y-85993400D01*
X115596323Y-85988935D01*
X115558636Y-85977502D01*
X115523897Y-85958934D01*
X115493452Y-85933948D01*
X115468466Y-85903503D01*
X115449898Y-85868764D01*
X115438465Y-85831077D01*
X115434000Y-85785739D01*
X115434000Y-84699061D01*
X115438465Y-84653723D01*
X115449898Y-84616036D01*
X115468466Y-84581297D01*
X115493452Y-84550852D01*
X115523897Y-84525866D01*
X115558636Y-84507298D01*
X115596323Y-84495865D01*
X115641661Y-84491400D01*
X116478339Y-84491400D01*
X116523677Y-84495865D01*
X116523677Y-84495865D01*
G37*
G36*
X132745947Y-81992338D02*
X132901858Y-82023350D01*
X133097677Y-82104461D01*
X133097678Y-82104462D01*
X133273913Y-82222218D01*
X133423782Y-82372087D01*
X133423784Y-82372090D01*
X133541539Y-82548323D01*
X133622650Y-82744142D01*
X133664000Y-82952023D01*
X133664000Y-83163977D01*
X133622650Y-83371858D01*
X133541539Y-83567677D01*
X133457727Y-83693110D01*
X133423782Y-83743913D01*
X133273913Y-83893782D01*
X133273910Y-83893784D01*
X133097677Y-84011539D01*
X132901858Y-84092650D01*
X132745947Y-84123663D01*
X132693978Y-84134000D01*
X132482022Y-84134000D01*
X132430053Y-84123662D01*
X132274142Y-84092650D01*
X132078323Y-84011539D01*
X131902090Y-83893784D01*
X131902087Y-83893782D01*
X131752218Y-83743913D01*
X131718273Y-83693110D01*
X131634461Y-83567677D01*
X131553350Y-83371858D01*
X131512000Y-83163977D01*
X131512000Y-82952023D01*
X131553350Y-82744142D01*
X131634461Y-82548323D01*
X131752216Y-82372090D01*
X131752218Y-82372087D01*
X131902087Y-82222218D01*
X132078322Y-82104462D01*
X132078323Y-82104461D01*
X132274142Y-82023350D01*
X132430053Y-81992338D01*
X132482022Y-81982000D01*
X132693978Y-81982000D01*
X132745947Y-81992338D01*
X132745947Y-81992338D01*
G37*
G36*
X123601947Y-81941538D02*
X123757858Y-81972550D01*
X123953677Y-82053661D01*
X124029706Y-82104462D01*
X124129913Y-82171418D01*
X124279782Y-82321287D01*
X124279784Y-82321290D01*
X124397539Y-82497523D01*
X124478650Y-82693342D01*
X124520000Y-82901223D01*
X124520000Y-83113177D01*
X124478650Y-83321058D01*
X124397539Y-83516877D01*
X124344753Y-83595877D01*
X124279782Y-83693113D01*
X124129913Y-83842982D01*
X124129910Y-83842984D01*
X123953677Y-83960739D01*
X123757858Y-84041850D01*
X123601947Y-84072863D01*
X123549978Y-84083200D01*
X123338022Y-84083200D01*
X123286053Y-84072863D01*
X123130142Y-84041850D01*
X122934323Y-83960739D01*
X122758090Y-83842984D01*
X122758087Y-83842982D01*
X122608218Y-83693113D01*
X122543247Y-83595877D01*
X122490461Y-83516877D01*
X122409350Y-83321058D01*
X122368000Y-83113177D01*
X122368000Y-82901223D01*
X122409350Y-82693342D01*
X122490461Y-82497523D01*
X122608216Y-82321290D01*
X122608218Y-82321287D01*
X122758087Y-82171418D01*
X122858294Y-82104462D01*
X122934323Y-82053661D01*
X123130142Y-81972550D01*
X123286053Y-81941538D01*
X123338022Y-81931200D01*
X123549978Y-81931200D01*
X123601947Y-81941538D01*
X123601947Y-81941538D01*
G37*
G36*
X105858977Y-82748665D02*
X105896664Y-82760098D01*
X105931403Y-82778666D01*
X105961848Y-82803652D01*
X105986834Y-82834097D01*
X106005402Y-82868836D01*
X106016835Y-82906523D01*
X106021300Y-82951861D01*
X106021300Y-83788539D01*
X106016835Y-83833877D01*
X106005402Y-83871564D01*
X105986834Y-83906303D01*
X105961848Y-83936748D01*
X105931403Y-83961734D01*
X105896664Y-83980302D01*
X105858977Y-83991735D01*
X105813639Y-83996200D01*
X104726961Y-83996200D01*
X104681623Y-83991735D01*
X104643936Y-83980302D01*
X104609197Y-83961734D01*
X104578752Y-83936748D01*
X104553766Y-83906303D01*
X104535198Y-83871564D01*
X104523765Y-83833877D01*
X104519300Y-83788539D01*
X104519300Y-82951861D01*
X104523765Y-82906523D01*
X104535198Y-82868836D01*
X104553766Y-82834097D01*
X104578752Y-82803652D01*
X104609197Y-82778666D01*
X104643936Y-82760098D01*
X104681623Y-82748665D01*
X104726961Y-82744200D01*
X105813639Y-82744200D01*
X105858977Y-82748665D01*
X105858977Y-82748665D01*
G37*
G36*
X103124122Y-82349287D02*
X103187414Y-82368487D01*
X103245748Y-82399667D01*
X103296874Y-82441626D01*
X103338833Y-82492752D01*
X103370013Y-82551086D01*
X103389213Y-82614378D01*
X103396300Y-82686339D01*
X103396300Y-83600061D01*
X103389213Y-83672022D01*
X103370013Y-83735314D01*
X103338833Y-83793648D01*
X103296874Y-83844774D01*
X103245748Y-83886733D01*
X103187414Y-83917913D01*
X103124122Y-83937113D01*
X103052161Y-83944200D01*
X101138439Y-83944200D01*
X101066478Y-83937113D01*
X101003186Y-83917913D01*
X100944852Y-83886733D01*
X100893726Y-83844774D01*
X100851767Y-83793648D01*
X100820587Y-83735314D01*
X100801387Y-83672022D01*
X100794300Y-83600061D01*
X100794300Y-82686339D01*
X100801387Y-82614378D01*
X100820587Y-82551086D01*
X100851767Y-82492752D01*
X100893726Y-82441626D01*
X100944852Y-82399667D01*
X101003186Y-82368487D01*
X101066478Y-82349287D01*
X101138439Y-82342200D01*
X103052161Y-82342200D01*
X103124122Y-82349287D01*
X103124122Y-82349287D01*
G37*
G36*
X109942977Y-82260665D02*
X109980664Y-82272098D01*
X110015403Y-82290666D01*
X110045848Y-82315652D01*
X110070834Y-82346097D01*
X110089402Y-82380836D01*
X110100835Y-82418523D01*
X110105300Y-82463861D01*
X110105300Y-83550539D01*
X110100835Y-83595877D01*
X110089402Y-83633564D01*
X110070834Y-83668303D01*
X110045848Y-83698748D01*
X110015403Y-83723734D01*
X109980664Y-83742302D01*
X109942977Y-83753735D01*
X109897639Y-83758200D01*
X109060961Y-83758200D01*
X109015623Y-83753735D01*
X108977936Y-83742302D01*
X108943197Y-83723734D01*
X108912752Y-83698748D01*
X108887766Y-83668303D01*
X108869198Y-83633564D01*
X108857765Y-83595877D01*
X108853300Y-83550539D01*
X108853300Y-82463861D01*
X108857765Y-82418523D01*
X108869198Y-82380836D01*
X108887766Y-82346097D01*
X108912752Y-82315652D01*
X108943197Y-82290666D01*
X108977936Y-82272098D01*
X109015623Y-82260665D01*
X109060961Y-82256200D01*
X109897639Y-82256200D01*
X109942977Y-82260665D01*
X109942977Y-82260665D01*
G37*
G36*
X107892977Y-82260665D02*
X107930664Y-82272098D01*
X107965403Y-82290666D01*
X107995848Y-82315652D01*
X108020834Y-82346097D01*
X108039402Y-82380836D01*
X108050835Y-82418523D01*
X108055300Y-82463861D01*
X108055300Y-83550539D01*
X108050835Y-83595877D01*
X108039402Y-83633564D01*
X108020834Y-83668303D01*
X107995848Y-83698748D01*
X107965403Y-83723734D01*
X107930664Y-83742302D01*
X107892977Y-83753735D01*
X107847639Y-83758200D01*
X107010961Y-83758200D01*
X106965623Y-83753735D01*
X106927936Y-83742302D01*
X106893197Y-83723734D01*
X106862752Y-83698748D01*
X106837766Y-83668303D01*
X106819198Y-83633564D01*
X106807765Y-83595877D01*
X106803300Y-83550539D01*
X106803300Y-82463861D01*
X106807765Y-82418523D01*
X106819198Y-82380836D01*
X106837766Y-82346097D01*
X106862752Y-82315652D01*
X106893197Y-82290666D01*
X106927936Y-82272098D01*
X106965623Y-82260665D01*
X107010961Y-82256200D01*
X107847639Y-82256200D01*
X107892977Y-82260665D01*
X107892977Y-82260665D01*
G37*
G36*
X112382000Y-83279200D02*
X111180000Y-83279200D01*
X111180000Y-82227200D01*
X112382000Y-82227200D01*
X112382000Y-83279200D01*
X112382000Y-83279200D01*
G37*
G36*
X115642000Y-83279200D02*
X114440000Y-83279200D01*
X114440000Y-82227200D01*
X115642000Y-82227200D01*
X115642000Y-83279200D01*
X115642000Y-83279200D01*
G37*
G36*
X135365396Y-79643546D02*
X135538466Y-79715234D01*
X135694230Y-79819312D01*
X135826688Y-79951770D01*
X135930766Y-80107534D01*
X136002454Y-80280604D01*
X136039000Y-80464333D01*
X136039000Y-80651667D01*
X136002454Y-80835396D01*
X135930766Y-81008466D01*
X135826688Y-81164230D01*
X135694230Y-81296688D01*
X135538466Y-81400766D01*
X135365396Y-81472454D01*
X135181667Y-81509000D01*
X134994333Y-81509000D01*
X134810604Y-81472454D01*
X134637534Y-81400766D01*
X134481770Y-81296688D01*
X134349312Y-81164230D01*
X134245234Y-81008466D01*
X134173546Y-80835396D01*
X134137000Y-80651667D01*
X134137000Y-80464333D01*
X134173546Y-80280604D01*
X134245234Y-80107534D01*
X134349312Y-79951770D01*
X134481770Y-79819312D01*
X134637534Y-79715234D01*
X134810604Y-79643546D01*
X134994333Y-79607000D01*
X135181667Y-79607000D01*
X135365396Y-79643546D01*
X135365396Y-79643546D01*
G37*
G36*
X130365396Y-79643546D02*
X130538466Y-79715234D01*
X130694230Y-79819312D01*
X130826688Y-79951770D01*
X130930766Y-80107534D01*
X131002454Y-80280604D01*
X131039000Y-80464333D01*
X131039000Y-80651667D01*
X131002454Y-80835396D01*
X130930766Y-81008466D01*
X130826688Y-81164230D01*
X130694230Y-81296688D01*
X130538466Y-81400766D01*
X130365396Y-81472454D01*
X130181667Y-81509000D01*
X129994333Y-81509000D01*
X129810604Y-81472454D01*
X129637534Y-81400766D01*
X129481770Y-81296688D01*
X129349312Y-81164230D01*
X129245234Y-81008466D01*
X129173546Y-80835396D01*
X129137000Y-80651667D01*
X129137000Y-80464333D01*
X129173546Y-80280604D01*
X129245234Y-80107534D01*
X129349312Y-79951770D01*
X129481770Y-79819312D01*
X129637534Y-79715234D01*
X129810604Y-79643546D01*
X129994333Y-79607000D01*
X130181667Y-79607000D01*
X130365396Y-79643546D01*
X130365396Y-79643546D01*
G37*
G36*
X126221396Y-79592746D02*
X126394466Y-79664434D01*
X126550230Y-79768512D01*
X126682688Y-79900970D01*
X126786766Y-80056734D01*
X126858454Y-80229804D01*
X126895000Y-80413533D01*
X126895000Y-80600867D01*
X126858454Y-80784596D01*
X126786766Y-80957666D01*
X126682688Y-81113430D01*
X126550230Y-81245888D01*
X126394466Y-81349966D01*
X126221396Y-81421654D01*
X126037667Y-81458200D01*
X125850333Y-81458200D01*
X125666604Y-81421654D01*
X125493534Y-81349966D01*
X125337770Y-81245888D01*
X125205312Y-81113430D01*
X125101234Y-80957666D01*
X125029546Y-80784596D01*
X124993000Y-80600867D01*
X124993000Y-80413533D01*
X125029546Y-80229804D01*
X125101234Y-80056734D01*
X125205312Y-79900970D01*
X125337770Y-79768512D01*
X125493534Y-79664434D01*
X125666604Y-79592746D01*
X125850333Y-79556200D01*
X126037667Y-79556200D01*
X126221396Y-79592746D01*
X126221396Y-79592746D01*
G37*
G36*
X121221396Y-79592746D02*
X121394466Y-79664434D01*
X121550230Y-79768512D01*
X121682688Y-79900970D01*
X121786766Y-80056734D01*
X121858454Y-80229804D01*
X121895000Y-80413533D01*
X121895000Y-80600867D01*
X121858454Y-80784596D01*
X121786766Y-80957666D01*
X121682688Y-81113430D01*
X121550230Y-81245888D01*
X121394466Y-81349966D01*
X121221396Y-81421654D01*
X121037667Y-81458200D01*
X120850333Y-81458200D01*
X120666604Y-81421654D01*
X120493534Y-81349966D01*
X120337770Y-81245888D01*
X120205312Y-81113430D01*
X120101234Y-80957666D01*
X120029546Y-80784596D01*
X119993000Y-80600867D01*
X119993000Y-80413533D01*
X120029546Y-80229804D01*
X120101234Y-80056734D01*
X120205312Y-79900970D01*
X120337770Y-79768512D01*
X120493534Y-79664434D01*
X120666604Y-79592746D01*
X120850333Y-79556200D01*
X121037667Y-79556200D01*
X121221396Y-79592746D01*
X121221396Y-79592746D01*
G37*
M02*
