G04 #@! TF.GenerationSoftware,KiCad,Pcbnew,(5.0.2)-1*
G04 #@! TF.CreationDate,2019-08-18T13:50:33-04:00*
G04 #@! TF.ProjectId,Dual-Rail-Op-Amp,4475616c-2d52-4616-996c-2d4f702d416d,rev?*
G04 #@! TF.SameCoordinates,Original*
G04 #@! TF.FileFunction,Soldermask,Bot*
G04 #@! TF.FilePolarity,Negative*
%FSLAX46Y46*%
G04 Gerber Fmt 4.6, Leading zero omitted, Abs format (unit mm)*
G04 Created by KiCad (PCBNEW (5.0.2)-1) date 8/18/2019 1:50:33 PM*
%MOMM*%
%LPD*%
G01*
G04 APERTURE LIST*
%ADD10C,0.150000*%
%ADD11C,0.100000*%
G04 APERTURE END LIST*
D10*
X142989300Y-105346500D02*
X142989300Y-77724000D01*
X142989300Y-105346500D02*
G75*
G02X141693900Y-106641900I-1295400J0D01*
G01*
X141693900Y-76428600D02*
G75*
G02X142989300Y-77724000I0J-1295400D01*
G01*
X86804500Y-77724000D02*
G75*
G02X88099900Y-76428600I1295400J0D01*
G01*
X88099900Y-106641900D02*
G75*
G02X86804500Y-105346500I0J1295400D01*
G01*
X141693900Y-76428600D02*
X88099900Y-76428600D01*
X86804500Y-105346500D02*
X86804500Y-77724000D01*
X141693900Y-106641900D02*
X88099900Y-106641900D01*
D11*
G36*
X130365396Y-102677546D02*
X130538466Y-102749234D01*
X130694230Y-102853312D01*
X130826688Y-102985770D01*
X130930766Y-103141534D01*
X131002454Y-103314604D01*
X131039000Y-103498333D01*
X131039000Y-103685667D01*
X131002454Y-103869396D01*
X130930766Y-104042466D01*
X130826688Y-104198230D01*
X130694230Y-104330688D01*
X130538466Y-104434766D01*
X130365396Y-104506454D01*
X130181667Y-104543000D01*
X129994333Y-104543000D01*
X129810604Y-104506454D01*
X129637534Y-104434766D01*
X129481770Y-104330688D01*
X129349312Y-104198230D01*
X129245234Y-104042466D01*
X129173546Y-103869396D01*
X129137000Y-103685667D01*
X129137000Y-103498333D01*
X129173546Y-103314604D01*
X129245234Y-103141534D01*
X129349312Y-102985770D01*
X129481770Y-102853312D01*
X129637534Y-102749234D01*
X129810604Y-102677546D01*
X129994333Y-102641000D01*
X130181667Y-102641000D01*
X130365396Y-102677546D01*
X130365396Y-102677546D01*
G37*
G36*
X120662596Y-102677546D02*
X120835666Y-102749234D01*
X120991430Y-102853312D01*
X121123888Y-102985770D01*
X121227966Y-103141534D01*
X121299654Y-103314604D01*
X121336200Y-103498333D01*
X121336200Y-103685667D01*
X121299654Y-103869396D01*
X121227966Y-104042466D01*
X121123888Y-104198230D01*
X120991430Y-104330688D01*
X120835666Y-104434766D01*
X120662596Y-104506454D01*
X120478867Y-104543000D01*
X120291533Y-104543000D01*
X120107804Y-104506454D01*
X119934734Y-104434766D01*
X119778970Y-104330688D01*
X119646512Y-104198230D01*
X119542434Y-104042466D01*
X119470746Y-103869396D01*
X119434200Y-103685667D01*
X119434200Y-103498333D01*
X119470746Y-103314604D01*
X119542434Y-103141534D01*
X119646512Y-102985770D01*
X119778970Y-102853312D01*
X119934734Y-102749234D01*
X120107804Y-102677546D01*
X120291533Y-102641000D01*
X120478867Y-102641000D01*
X120662596Y-102677546D01*
X120662596Y-102677546D01*
G37*
G36*
X125662596Y-102677546D02*
X125835666Y-102749234D01*
X125991430Y-102853312D01*
X126123888Y-102985770D01*
X126227966Y-103141534D01*
X126299654Y-103314604D01*
X126336200Y-103498333D01*
X126336200Y-103685667D01*
X126299654Y-103869396D01*
X126227966Y-104042466D01*
X126123888Y-104198230D01*
X125991430Y-104330688D01*
X125835666Y-104434766D01*
X125662596Y-104506454D01*
X125478867Y-104543000D01*
X125291533Y-104543000D01*
X125107804Y-104506454D01*
X124934734Y-104434766D01*
X124778970Y-104330688D01*
X124646512Y-104198230D01*
X124542434Y-104042466D01*
X124470746Y-103869396D01*
X124434200Y-103685667D01*
X124434200Y-103498333D01*
X124470746Y-103314604D01*
X124542434Y-103141534D01*
X124646512Y-102985770D01*
X124778970Y-102853312D01*
X124934734Y-102749234D01*
X125107804Y-102677546D01*
X125291533Y-102641000D01*
X125478867Y-102641000D01*
X125662596Y-102677546D01*
X125662596Y-102677546D01*
G37*
G36*
X135365396Y-102677546D02*
X135538466Y-102749234D01*
X135694230Y-102853312D01*
X135826688Y-102985770D01*
X135930766Y-103141534D01*
X136002454Y-103314604D01*
X136039000Y-103498333D01*
X136039000Y-103685667D01*
X136002454Y-103869396D01*
X135930766Y-104042466D01*
X135826688Y-104198230D01*
X135694230Y-104330688D01*
X135538466Y-104434766D01*
X135365396Y-104506454D01*
X135181667Y-104543000D01*
X134994333Y-104543000D01*
X134810604Y-104506454D01*
X134637534Y-104434766D01*
X134481770Y-104330688D01*
X134349312Y-104198230D01*
X134245234Y-104042466D01*
X134173546Y-103869396D01*
X134137000Y-103685667D01*
X134137000Y-103498333D01*
X134173546Y-103314604D01*
X134245234Y-103141534D01*
X134349312Y-102985770D01*
X134481770Y-102853312D01*
X134637534Y-102749234D01*
X134810604Y-102677546D01*
X134994333Y-102641000D01*
X135181667Y-102641000D01*
X135365396Y-102677546D01*
X135365396Y-102677546D01*
G37*
G36*
X132745947Y-100026337D02*
X132901858Y-100057350D01*
X133097677Y-100138461D01*
X133097678Y-100138462D01*
X133273913Y-100256218D01*
X133423782Y-100406087D01*
X133423784Y-100406090D01*
X133541539Y-100582323D01*
X133622650Y-100778142D01*
X133664000Y-100986023D01*
X133664000Y-101197977D01*
X133622650Y-101405858D01*
X133541539Y-101601677D01*
X133541538Y-101601678D01*
X133423782Y-101777913D01*
X133273913Y-101927782D01*
X133273910Y-101927784D01*
X133097677Y-102045539D01*
X132901858Y-102126650D01*
X132745947Y-102157662D01*
X132693978Y-102168000D01*
X132482022Y-102168000D01*
X132430053Y-102157662D01*
X132274142Y-102126650D01*
X132078323Y-102045539D01*
X131902090Y-101927784D01*
X131902087Y-101927782D01*
X131752218Y-101777913D01*
X131634462Y-101601678D01*
X131634461Y-101601677D01*
X131553350Y-101405858D01*
X131512000Y-101197977D01*
X131512000Y-100986023D01*
X131553350Y-100778142D01*
X131634461Y-100582323D01*
X131752216Y-100406090D01*
X131752218Y-100406087D01*
X131902087Y-100256218D01*
X132078322Y-100138462D01*
X132078323Y-100138461D01*
X132274142Y-100057350D01*
X132430053Y-100026338D01*
X132482022Y-100016000D01*
X132693978Y-100016000D01*
X132745947Y-100026337D01*
X132745947Y-100026337D01*
G37*
G36*
X123043147Y-100026337D02*
X123199058Y-100057350D01*
X123394877Y-100138461D01*
X123394878Y-100138462D01*
X123571113Y-100256218D01*
X123720982Y-100406087D01*
X123720984Y-100406090D01*
X123838739Y-100582323D01*
X123919850Y-100778142D01*
X123961200Y-100986023D01*
X123961200Y-101197977D01*
X123919850Y-101405858D01*
X123838739Y-101601677D01*
X123838738Y-101601678D01*
X123720982Y-101777913D01*
X123571113Y-101927782D01*
X123571110Y-101927784D01*
X123394877Y-102045539D01*
X123199058Y-102126650D01*
X123043147Y-102157662D01*
X122991178Y-102168000D01*
X122779222Y-102168000D01*
X122727253Y-102157662D01*
X122571342Y-102126650D01*
X122375523Y-102045539D01*
X122199290Y-101927784D01*
X122199287Y-101927782D01*
X122049418Y-101777913D01*
X121931662Y-101601678D01*
X121931661Y-101601677D01*
X121850550Y-101405858D01*
X121809200Y-101197977D01*
X121809200Y-100986023D01*
X121850550Y-100778142D01*
X121931661Y-100582323D01*
X122049416Y-100406090D01*
X122049418Y-100406087D01*
X122199287Y-100256218D01*
X122375522Y-100138462D01*
X122375523Y-100138461D01*
X122571342Y-100057350D01*
X122727253Y-100026338D01*
X122779222Y-100016000D01*
X122991178Y-100016000D01*
X123043147Y-100026337D01*
X123043147Y-100026337D01*
G37*
G36*
X125662596Y-97677546D02*
X125835666Y-97749234D01*
X125991430Y-97853312D01*
X126123888Y-97985770D01*
X126227966Y-98141534D01*
X126299654Y-98314604D01*
X126336200Y-98498333D01*
X126336200Y-98685667D01*
X126299654Y-98869396D01*
X126227966Y-99042466D01*
X126123888Y-99198230D01*
X125991430Y-99330688D01*
X125835666Y-99434766D01*
X125662596Y-99506454D01*
X125478867Y-99543000D01*
X125291533Y-99543000D01*
X125107804Y-99506454D01*
X124934734Y-99434766D01*
X124778970Y-99330688D01*
X124646512Y-99198230D01*
X124542434Y-99042466D01*
X124470746Y-98869396D01*
X124434200Y-98685667D01*
X124434200Y-98498333D01*
X124470746Y-98314604D01*
X124542434Y-98141534D01*
X124646512Y-97985770D01*
X124778970Y-97853312D01*
X124934734Y-97749234D01*
X125107804Y-97677546D01*
X125291533Y-97641000D01*
X125478867Y-97641000D01*
X125662596Y-97677546D01*
X125662596Y-97677546D01*
G37*
G36*
X120662596Y-97677546D02*
X120835666Y-97749234D01*
X120991430Y-97853312D01*
X121123888Y-97985770D01*
X121227966Y-98141534D01*
X121299654Y-98314604D01*
X121336200Y-98498333D01*
X121336200Y-98685667D01*
X121299654Y-98869396D01*
X121227966Y-99042466D01*
X121123888Y-99198230D01*
X120991430Y-99330688D01*
X120835666Y-99434766D01*
X120662596Y-99506454D01*
X120478867Y-99543000D01*
X120291533Y-99543000D01*
X120107804Y-99506454D01*
X119934734Y-99434766D01*
X119778970Y-99330688D01*
X119646512Y-99198230D01*
X119542434Y-99042466D01*
X119470746Y-98869396D01*
X119434200Y-98685667D01*
X119434200Y-98498333D01*
X119470746Y-98314604D01*
X119542434Y-98141534D01*
X119646512Y-97985770D01*
X119778970Y-97853312D01*
X119934734Y-97749234D01*
X120107804Y-97677546D01*
X120291533Y-97641000D01*
X120478867Y-97641000D01*
X120662596Y-97677546D01*
X120662596Y-97677546D01*
G37*
G36*
X130365396Y-97677546D02*
X130538466Y-97749234D01*
X130694230Y-97853312D01*
X130826688Y-97985770D01*
X130930766Y-98141534D01*
X131002454Y-98314604D01*
X131039000Y-98498333D01*
X131039000Y-98685667D01*
X131002454Y-98869396D01*
X130930766Y-99042466D01*
X130826688Y-99198230D01*
X130694230Y-99330688D01*
X130538466Y-99434766D01*
X130365396Y-99506454D01*
X130181667Y-99543000D01*
X129994333Y-99543000D01*
X129810604Y-99506454D01*
X129637534Y-99434766D01*
X129481770Y-99330688D01*
X129349312Y-99198230D01*
X129245234Y-99042466D01*
X129173546Y-98869396D01*
X129137000Y-98685667D01*
X129137000Y-98498333D01*
X129173546Y-98314604D01*
X129245234Y-98141534D01*
X129349312Y-97985770D01*
X129481770Y-97853312D01*
X129637534Y-97749234D01*
X129810604Y-97677546D01*
X129994333Y-97641000D01*
X130181667Y-97641000D01*
X130365396Y-97677546D01*
X130365396Y-97677546D01*
G37*
G36*
X135365396Y-97677546D02*
X135538466Y-97749234D01*
X135694230Y-97853312D01*
X135826688Y-97985770D01*
X135930766Y-98141534D01*
X136002454Y-98314604D01*
X136039000Y-98498333D01*
X136039000Y-98685667D01*
X136002454Y-98869396D01*
X135930766Y-99042466D01*
X135826688Y-99198230D01*
X135694230Y-99330688D01*
X135538466Y-99434766D01*
X135365396Y-99506454D01*
X135181667Y-99543000D01*
X134994333Y-99543000D01*
X134810604Y-99506454D01*
X134637534Y-99434766D01*
X134481770Y-99330688D01*
X134349312Y-99198230D01*
X134245234Y-99042466D01*
X134173546Y-98869396D01*
X134137000Y-98685667D01*
X134137000Y-98498333D01*
X134173546Y-98314604D01*
X134245234Y-98141534D01*
X134349312Y-97985770D01*
X134481770Y-97853312D01*
X134637534Y-97749234D01*
X134810604Y-97677546D01*
X134994333Y-97641000D01*
X135181667Y-97641000D01*
X135365396Y-97677546D01*
X135365396Y-97677546D01*
G37*
G36*
X94935289Y-92201106D02*
X95078640Y-92215225D01*
X95323880Y-92289618D01*
X95323882Y-92289619D01*
X95549896Y-92410426D01*
X95747997Y-92573003D01*
X95910574Y-92771104D01*
X95910575Y-92771106D01*
X96031382Y-92997120D01*
X96105775Y-93242360D01*
X96130894Y-93497400D01*
X96105775Y-93752440D01*
X96031382Y-93997680D01*
X96031381Y-93997682D01*
X95910574Y-94223696D01*
X95747997Y-94421797D01*
X95549896Y-94584374D01*
X95549894Y-94584375D01*
X95323880Y-94705182D01*
X95078640Y-94779575D01*
X94935289Y-94793694D01*
X94887506Y-94798400D01*
X92259694Y-94798400D01*
X92211911Y-94793694D01*
X92068560Y-94779575D01*
X91823320Y-94705182D01*
X91597306Y-94584375D01*
X91597304Y-94584374D01*
X91399203Y-94421797D01*
X91236626Y-94223696D01*
X91115819Y-93997682D01*
X91115818Y-93997680D01*
X91041425Y-93752440D01*
X91016306Y-93497400D01*
X91041425Y-93242360D01*
X91115818Y-92997120D01*
X91236625Y-92771106D01*
X91236626Y-92771104D01*
X91399203Y-92573003D01*
X91597304Y-92410426D01*
X91823318Y-92289619D01*
X91823320Y-92289618D01*
X92068560Y-92215225D01*
X92211911Y-92201106D01*
X92259694Y-92196400D01*
X94887506Y-92196400D01*
X94935289Y-92201106D01*
X94935289Y-92201106D01*
G37*
G36*
X94929136Y-86338416D02*
X95150813Y-86405661D01*
X95355112Y-86514861D01*
X95534181Y-86661819D01*
X95681139Y-86840888D01*
X95790339Y-87045187D01*
X95857584Y-87266864D01*
X95880290Y-87497400D01*
X95857584Y-87727936D01*
X95790339Y-87949613D01*
X95681139Y-88153912D01*
X95534181Y-88332981D01*
X95355112Y-88479939D01*
X95150813Y-88589139D01*
X94929136Y-88656384D01*
X94756371Y-88673400D01*
X92390829Y-88673400D01*
X92218064Y-88656384D01*
X91996387Y-88589139D01*
X91792088Y-88479939D01*
X91613019Y-88332981D01*
X91466061Y-88153912D01*
X91356861Y-87949613D01*
X91289616Y-87727936D01*
X91266910Y-87497400D01*
X91289616Y-87266864D01*
X91356861Y-87045187D01*
X91466061Y-86840888D01*
X91613019Y-86661819D01*
X91792088Y-86514861D01*
X91996387Y-86405661D01*
X92218064Y-86338416D01*
X92390829Y-86321400D01*
X94756371Y-86321400D01*
X94929136Y-86338416D01*
X94929136Y-86338416D01*
G37*
G36*
X135365396Y-84643546D02*
X135538466Y-84715234D01*
X135694230Y-84819312D01*
X135826688Y-84951770D01*
X135930766Y-85107534D01*
X136002454Y-85280604D01*
X136039000Y-85464333D01*
X136039000Y-85651667D01*
X136002454Y-85835396D01*
X135930766Y-86008466D01*
X135826688Y-86164230D01*
X135694230Y-86296688D01*
X135538466Y-86400766D01*
X135365396Y-86472454D01*
X135181667Y-86509000D01*
X134994333Y-86509000D01*
X134810604Y-86472454D01*
X134637534Y-86400766D01*
X134481770Y-86296688D01*
X134349312Y-86164230D01*
X134245234Y-86008466D01*
X134173546Y-85835396D01*
X134137000Y-85651667D01*
X134137000Y-85464333D01*
X134173546Y-85280604D01*
X134245234Y-85107534D01*
X134349312Y-84951770D01*
X134481770Y-84819312D01*
X134637534Y-84715234D01*
X134810604Y-84643546D01*
X134994333Y-84607000D01*
X135181667Y-84607000D01*
X135365396Y-84643546D01*
X135365396Y-84643546D01*
G37*
G36*
X130365396Y-84643546D02*
X130538466Y-84715234D01*
X130694230Y-84819312D01*
X130826688Y-84951770D01*
X130930766Y-85107534D01*
X131002454Y-85280604D01*
X131039000Y-85464333D01*
X131039000Y-85651667D01*
X131002454Y-85835396D01*
X130930766Y-86008466D01*
X130826688Y-86164230D01*
X130694230Y-86296688D01*
X130538466Y-86400766D01*
X130365396Y-86472454D01*
X130181667Y-86509000D01*
X129994333Y-86509000D01*
X129810604Y-86472454D01*
X129637534Y-86400766D01*
X129481770Y-86296688D01*
X129349312Y-86164230D01*
X129245234Y-86008466D01*
X129173546Y-85835396D01*
X129137000Y-85651667D01*
X129137000Y-85464333D01*
X129173546Y-85280604D01*
X129245234Y-85107534D01*
X129349312Y-84951770D01*
X129481770Y-84819312D01*
X129637534Y-84715234D01*
X129810604Y-84643546D01*
X129994333Y-84607000D01*
X130181667Y-84607000D01*
X130365396Y-84643546D01*
X130365396Y-84643546D01*
G37*
G36*
X126221396Y-84592746D02*
X126394466Y-84664434D01*
X126550230Y-84768512D01*
X126682688Y-84900970D01*
X126786766Y-85056734D01*
X126858454Y-85229804D01*
X126895000Y-85413533D01*
X126895000Y-85600867D01*
X126858454Y-85784596D01*
X126786766Y-85957666D01*
X126682688Y-86113430D01*
X126550230Y-86245888D01*
X126394466Y-86349966D01*
X126221396Y-86421654D01*
X126037667Y-86458200D01*
X125850333Y-86458200D01*
X125666604Y-86421654D01*
X125493534Y-86349966D01*
X125337770Y-86245888D01*
X125205312Y-86113430D01*
X125101234Y-85957666D01*
X125029546Y-85784596D01*
X124993000Y-85600867D01*
X124993000Y-85413533D01*
X125029546Y-85229804D01*
X125101234Y-85056734D01*
X125205312Y-84900970D01*
X125337770Y-84768512D01*
X125493534Y-84664434D01*
X125666604Y-84592746D01*
X125850333Y-84556200D01*
X126037667Y-84556200D01*
X126221396Y-84592746D01*
X126221396Y-84592746D01*
G37*
G36*
X121221396Y-84592746D02*
X121394466Y-84664434D01*
X121550230Y-84768512D01*
X121682688Y-84900970D01*
X121786766Y-85056734D01*
X121858454Y-85229804D01*
X121895000Y-85413533D01*
X121895000Y-85600867D01*
X121858454Y-85784596D01*
X121786766Y-85957666D01*
X121682688Y-86113430D01*
X121550230Y-86245888D01*
X121394466Y-86349966D01*
X121221396Y-86421654D01*
X121037667Y-86458200D01*
X120850333Y-86458200D01*
X120666604Y-86421654D01*
X120493534Y-86349966D01*
X120337770Y-86245888D01*
X120205312Y-86113430D01*
X120101234Y-85957666D01*
X120029546Y-85784596D01*
X119993000Y-85600867D01*
X119993000Y-85413533D01*
X120029546Y-85229804D01*
X120101234Y-85056734D01*
X120205312Y-84900970D01*
X120337770Y-84768512D01*
X120493534Y-84664434D01*
X120666604Y-84592746D01*
X120850333Y-84556200D01*
X121037667Y-84556200D01*
X121221396Y-84592746D01*
X121221396Y-84592746D01*
G37*
G36*
X132745947Y-81992338D02*
X132901858Y-82023350D01*
X133097677Y-82104461D01*
X133097678Y-82104462D01*
X133273913Y-82222218D01*
X133423782Y-82372087D01*
X133423784Y-82372090D01*
X133541539Y-82548323D01*
X133622650Y-82744142D01*
X133664000Y-82952023D01*
X133664000Y-83163977D01*
X133622650Y-83371858D01*
X133541539Y-83567677D01*
X133541538Y-83567678D01*
X133423782Y-83743913D01*
X133273913Y-83893782D01*
X133273910Y-83893784D01*
X133097677Y-84011539D01*
X132901858Y-84092650D01*
X132745947Y-84123663D01*
X132693978Y-84134000D01*
X132482022Y-84134000D01*
X132430053Y-84123662D01*
X132274142Y-84092650D01*
X132078323Y-84011539D01*
X131902090Y-83893784D01*
X131902087Y-83893782D01*
X131752218Y-83743913D01*
X131634462Y-83567678D01*
X131634461Y-83567677D01*
X131553350Y-83371858D01*
X131512000Y-83163977D01*
X131512000Y-82952023D01*
X131553350Y-82744142D01*
X131634461Y-82548323D01*
X131752216Y-82372090D01*
X131752218Y-82372087D01*
X131902087Y-82222218D01*
X132078322Y-82104462D01*
X132078323Y-82104461D01*
X132274142Y-82023350D01*
X132430053Y-81992338D01*
X132482022Y-81982000D01*
X132693978Y-81982000D01*
X132745947Y-81992338D01*
X132745947Y-81992338D01*
G37*
G36*
X123601947Y-81941538D02*
X123757858Y-81972550D01*
X123953677Y-82053661D01*
X124029706Y-82104462D01*
X124129913Y-82171418D01*
X124279782Y-82321287D01*
X124279784Y-82321290D01*
X124397539Y-82497523D01*
X124478650Y-82693342D01*
X124520000Y-82901223D01*
X124520000Y-83113177D01*
X124478650Y-83321058D01*
X124397539Y-83516877D01*
X124363595Y-83567678D01*
X124279782Y-83693113D01*
X124129913Y-83842982D01*
X124129910Y-83842984D01*
X123953677Y-83960739D01*
X123757858Y-84041850D01*
X123601947Y-84072863D01*
X123549978Y-84083200D01*
X123338022Y-84083200D01*
X123286053Y-84072863D01*
X123130142Y-84041850D01*
X122934323Y-83960739D01*
X122758090Y-83842984D01*
X122758087Y-83842982D01*
X122608218Y-83693113D01*
X122524405Y-83567678D01*
X122490461Y-83516877D01*
X122409350Y-83321058D01*
X122368000Y-83113177D01*
X122368000Y-82901223D01*
X122409350Y-82693342D01*
X122490461Y-82497523D01*
X122608216Y-82321290D01*
X122608218Y-82321287D01*
X122758087Y-82171418D01*
X122858294Y-82104462D01*
X122934323Y-82053661D01*
X123130142Y-81972550D01*
X123286053Y-81941538D01*
X123338022Y-81931200D01*
X123549978Y-81931200D01*
X123601947Y-81941538D01*
X123601947Y-81941538D01*
G37*
G36*
X130365396Y-79643546D02*
X130538466Y-79715234D01*
X130694230Y-79819312D01*
X130826688Y-79951770D01*
X130930766Y-80107534D01*
X131002454Y-80280604D01*
X131039000Y-80464333D01*
X131039000Y-80651667D01*
X131002454Y-80835396D01*
X130930766Y-81008466D01*
X130826688Y-81164230D01*
X130694230Y-81296688D01*
X130538466Y-81400766D01*
X130365396Y-81472454D01*
X130181667Y-81509000D01*
X129994333Y-81509000D01*
X129810604Y-81472454D01*
X129637534Y-81400766D01*
X129481770Y-81296688D01*
X129349312Y-81164230D01*
X129245234Y-81008466D01*
X129173546Y-80835396D01*
X129137000Y-80651667D01*
X129137000Y-80464333D01*
X129173546Y-80280604D01*
X129245234Y-80107534D01*
X129349312Y-79951770D01*
X129481770Y-79819312D01*
X129637534Y-79715234D01*
X129810604Y-79643546D01*
X129994333Y-79607000D01*
X130181667Y-79607000D01*
X130365396Y-79643546D01*
X130365396Y-79643546D01*
G37*
G36*
X135365396Y-79643546D02*
X135538466Y-79715234D01*
X135694230Y-79819312D01*
X135826688Y-79951770D01*
X135930766Y-80107534D01*
X136002454Y-80280604D01*
X136039000Y-80464333D01*
X136039000Y-80651667D01*
X136002454Y-80835396D01*
X135930766Y-81008466D01*
X135826688Y-81164230D01*
X135694230Y-81296688D01*
X135538466Y-81400766D01*
X135365396Y-81472454D01*
X135181667Y-81509000D01*
X134994333Y-81509000D01*
X134810604Y-81472454D01*
X134637534Y-81400766D01*
X134481770Y-81296688D01*
X134349312Y-81164230D01*
X134245234Y-81008466D01*
X134173546Y-80835396D01*
X134137000Y-80651667D01*
X134137000Y-80464333D01*
X134173546Y-80280604D01*
X134245234Y-80107534D01*
X134349312Y-79951770D01*
X134481770Y-79819312D01*
X134637534Y-79715234D01*
X134810604Y-79643546D01*
X134994333Y-79607000D01*
X135181667Y-79607000D01*
X135365396Y-79643546D01*
X135365396Y-79643546D01*
G37*
G36*
X126221396Y-79592746D02*
X126394466Y-79664434D01*
X126550230Y-79768512D01*
X126682688Y-79900970D01*
X126786766Y-80056734D01*
X126858454Y-80229804D01*
X126895000Y-80413533D01*
X126895000Y-80600867D01*
X126858454Y-80784596D01*
X126786766Y-80957666D01*
X126682688Y-81113430D01*
X126550230Y-81245888D01*
X126394466Y-81349966D01*
X126221396Y-81421654D01*
X126037667Y-81458200D01*
X125850333Y-81458200D01*
X125666604Y-81421654D01*
X125493534Y-81349966D01*
X125337770Y-81245888D01*
X125205312Y-81113430D01*
X125101234Y-80957666D01*
X125029546Y-80784596D01*
X124993000Y-80600867D01*
X124993000Y-80413533D01*
X125029546Y-80229804D01*
X125101234Y-80056734D01*
X125205312Y-79900970D01*
X125337770Y-79768512D01*
X125493534Y-79664434D01*
X125666604Y-79592746D01*
X125850333Y-79556200D01*
X126037667Y-79556200D01*
X126221396Y-79592746D01*
X126221396Y-79592746D01*
G37*
G36*
X121221396Y-79592746D02*
X121394466Y-79664434D01*
X121550230Y-79768512D01*
X121682688Y-79900970D01*
X121786766Y-80056734D01*
X121858454Y-80229804D01*
X121895000Y-80413533D01*
X121895000Y-80600867D01*
X121858454Y-80784596D01*
X121786766Y-80957666D01*
X121682688Y-81113430D01*
X121550230Y-81245888D01*
X121394466Y-81349966D01*
X121221396Y-81421654D01*
X121037667Y-81458200D01*
X120850333Y-81458200D01*
X120666604Y-81421654D01*
X120493534Y-81349966D01*
X120337770Y-81245888D01*
X120205312Y-81113430D01*
X120101234Y-80957666D01*
X120029546Y-80784596D01*
X119993000Y-80600867D01*
X119993000Y-80413533D01*
X120029546Y-80229804D01*
X120101234Y-80056734D01*
X120205312Y-79900970D01*
X120337770Y-79768512D01*
X120493534Y-79664434D01*
X120666604Y-79592746D01*
X120850333Y-79556200D01*
X121037667Y-79556200D01*
X121221396Y-79592746D01*
X121221396Y-79592746D01*
G37*
M02*
