M48
;DRILL file {KiCad (5.0.2)-1} date 8/18/2019 2:38:30 PM
;FORMAT={-:-/ absolute / inch / decimal}
FMAT,2
INCH,TZ
T1C0.0157
T2C0.0472
T3C0.0512
T4C0.0591
%
G90
G05
T1
X3.46Y-3.1
X3.46Y-3.22
X3.46Y-3.36
X3.46Y-3.5
X3.46Y-3.68
X3.46Y-3.79
X3.46Y-3.9
X3.46Y-4.
X3.46Y-4.1
X3.54Y-3.05
X3.54Y-4.16
X3.55Y-3.43
X3.59Y-3.81
X3.62Y-3.35
X3.67Y-3.05
X3.69Y-4.16
X3.72Y-3.35
X3.73Y-3.81
X3.73Y-3.9
X3.8Y-3.6
X3.82Y-3.43
X3.83Y-3.05
X3.85Y-4.16
X3.88Y-3.8
X3.95Y-3.47
X3.95Y-3.76
X3.98Y-3.05
X3.98Y-3.9
X4.01Y-4.16
X4.09Y-3.33
X4.1Y-3.42
X4.1165Y-3.202
X4.14Y-3.05
X4.15Y-4.16
X4.1665Y-3.202
X4.22Y-3.81
X4.26Y-3.05
X4.29Y-3.81
X4.29Y-4.16
X4.3005Y-3.658
X4.3005Y-3.706
X4.3025Y-3.5
X4.3025Y-3.556
X4.35Y-3.62
X4.4Y-3.05
X4.44Y-4.16
X4.46Y-3.62
X4.53Y-3.05
X4.53Y-4.03
X4.56Y-3.62
X4.57Y-4.16
X4.65Y-3.62
X4.67Y-3.18
X4.67Y-4.03
X4.68Y-3.05
X4.7Y-4.16
X4.73Y-3.98
X4.75Y-3.62
X4.77Y-3.27
X4.81Y-3.05
X4.83Y-4.08
X4.84Y-4.16
X4.86Y-3.17
X4.86Y-3.63
X4.95Y-3.27
X4.96Y-3.05
X4.96Y-3.63
X4.98Y-4.16
X5.092Y-3.79
X5.11Y-3.64
X5.12Y-3.05
X5.12Y-3.1
X5.12Y-3.27
X5.13Y-3.98
X5.13Y-4.16
X5.17Y-3.64
X5.19Y-3.83
X5.2Y-3.17
X5.22Y-3.88
X5.22Y-4.09
X5.24Y-3.05
X5.25Y-4.16
X5.31Y-3.64
X5.31Y-3.82
X5.37Y-4.16
X5.38Y-3.05
X5.39Y-3.64
X5.4Y-3.17
X5.41Y-4.04
X5.42Y-3.29
X5.4936Y-3.8694
X5.5Y-3.29
X5.51Y-3.05
X5.51Y-3.64
X5.51Y-4.16
X5.58Y-3.13
X5.58Y-3.25
X5.58Y-3.37
X5.58Y-3.5
X5.58Y-3.62
X5.58Y-3.75
X5.58Y-3.89
X5.58Y-4.04
T3
X4.7616Y-3.1696
X4.7616Y-3.3664
X4.9584Y-3.1696
X4.9584Y-3.3664
X5.1216Y-3.1716
X5.1216Y-3.3684
X5.3184Y-3.1716
X5.3184Y-3.3684
X4.7396Y-3.8816
X4.7396Y-4.0784
X4.9364Y-3.8816
X4.9364Y-4.0784
X5.1216Y-3.8816
X5.1216Y-4.0784
X5.3184Y-3.8816
X5.3184Y-4.0784
T4
X4.86Y-3.268
X5.22Y-3.27
X4.838Y-3.98
X5.22Y-3.98
T2
X3.7253Y-3.4448G85X3.6427Y-3.4448
G05
X3.7332Y-3.681G85X3.6348Y-3.681
G05
T0
M30
